<mxfile host="Electron" modified="2023-10-20T07:07:03.369Z" agent="Mozilla/5.0 (Windows NT 10.0; Win64; x64) AppleWebKit/537.36 (KHTML, like Gecko) draw.io/22.0.3 Chrome/114.0.5735.289 Electron/25.8.4 Safari/537.36" etag="_83D0j_hxAQTnHd3Zay8" version="22.0.3" type="device">
  <diagram name="Page-1" id="uaUQlDBATobF9ebkZ5N1">
    <mxGraphModel dx="1434" dy="844" grid="1" gridSize="10" guides="1" tooltips="1" connect="1" arrows="1" fold="1" page="1" pageScale="1" pageWidth="1169" pageHeight="827" math="0" shadow="0">
      <root>
        <mxCell id="0" />
        <mxCell id="1" parent="0" />
        <mxCell id="kGaND2a8ccCfyIjc9hiN-18" style="edgeStyle=orthogonalEdgeStyle;rounded=0;orthogonalLoop=1;jettySize=auto;html=1;fillColor=#60a917;strokeColor=#2D7600;" parent="1" source="kGaND2a8ccCfyIjc9hiN-1" target="kGaND2a8ccCfyIjc9hiN-14" edge="1">
          <mxGeometry relative="1" as="geometry" />
        </mxCell>
        <mxCell id="kGaND2a8ccCfyIjc9hiN-1" value="" style="outlineConnect=0;dashed=0;verticalLabelPosition=bottom;verticalAlign=top;align=center;html=1;shape=mxgraph.aws3.thermostat;fillColor=#5294CF;gradientColor=none;" parent="1" vertex="1">
          <mxGeometry x="856.5" y="120.25" width="79.5" height="79.5" as="geometry" />
        </mxCell>
        <mxCell id="kGaND2a8ccCfyIjc9hiN-68" style="edgeStyle=orthogonalEdgeStyle;rounded=0;orthogonalLoop=1;jettySize=auto;html=1;entryX=0.5;entryY=0;entryDx=0;entryDy=0;fillColor=#f0a30a;strokeColor=#BD7000;" parent="1" source="kGaND2a8ccCfyIjc9hiN-4" target="kGaND2a8ccCfyIjc9hiN-26" edge="1">
          <mxGeometry relative="1" as="geometry" />
        </mxCell>
        <mxCell id="kGaND2a8ccCfyIjc9hiN-4" value="" style="shape=image;verticalLabelPosition=bottom;labelBackgroundColor=default;verticalAlign=top;aspect=fixed;imageAspect=0;image=data:image/png,iVBORw0KGgoAAAANSUhEUgAAAOEAAADhCAYAAAA+s9J6AAAgAElEQVR4nO2df1AUV7r3v46DqDjjKqBeB4NuUCNUgkHMdTBxMCnj5M3oG9/Ngpstl2xiskuW3c1WLanI3k2RuxuSsqzg67oRE0jFuJDIzRZuIBsY1gsmGTSCOKzljwAKhh8VZcAwrWLs0b5/sMPlV5/unumenpk+n6qpSM6Z089M93fOr+d5zhSO4zhQVMXj8WBoaAgDAwPo6ekZ899r167B7Xajs7MT/f39GBwcxPXr1+HxeMAwDNxuNwDAaDTCYDBAr9dj4cKFiI6OxoIFCzBv3jzMmjUL8+fPx6JFixAVFYXY2FgsWLAAM2bMgF6vV/nTU6ZQEQaWtrY29PT04KuvvkJLSwu+/PJLNDc3q2ZPQkICVq1ahTVr1iAhIQHLly/H0qVLVbNHi1ARKoTH40FPTw9OnTqFxsZG1NXV4dixY2qbJZrExEQ8/PDDMJvNWL16NRWmglARykhbWxs+//xz1NTUoLy8XG1zZCczMxObN2+mopQZKkI/YBgGx48fR3l5OYqLi9U2J+Dk5ORg8+bNWLNmDQwGg9rmhCxUhBJxuVyw2+04ePAgqqur1TYnaLBYLHj++efx6KOPIiYmRm1zQgoqQhEwDIMjR45g//79VHgisFgsePHFF2Gz2ejqqwioCAk0NDRgz549OHToUMCuaTKZcNddd+Guu+5CcnIy5s6dC4PBgJkzZ+J73/se5syZAwCYOXPmyHtu3Lgxpo2rV6/i22+/xcDAAFiWxTfffIOzZ8+ivb0d7e3tI9sagWD79u3IyclBcnJywK4ZalARjsPlcuGdd95BXl6eotexWCxYv349kpOTERcXh8WLFyMyMjIgcyuGYTAwMICOjg709vbizJkzaG5uVrSXT0hIwI4dO/CTn/yE9o7joCL8F21tbdi5c6ciCyxWqxXr1q1DamoqVqxYgbi4ONmvIRculwunTp1CU1MTampqcPToUdmvkZeXh+zs7KD+HgIKp3EcDgdntVo5ALK9bDYbV1RUxDmdTo5lWbU/ol+wLMs1NjZyRUVFnM1mk/V7ysrK4lpbW9X+iKqjWRHa7XYuISFBlocpISGBKygo4JxOp9ofS3FYluUcDgeXn5/PGY1G2X60tPDd8aE5EdbV1XHx8fF+PziJiYlcUVER19nZqfZHUhWn08kVFBTIIkar1apJMWpGhE6nk7NYLH4/KAUFBXQIxUNjYyOXm5srS8+ope847EXY1dXFZWVl+fVQZGRkcHV1dWp/lJDCbrdzGRkZfn3vOTk5XF9fn9ofRXHCWoT+DpPy8/O5rq4utT9GSNPV1eX3fSgqKlL7YyhKWIrQbrf7fMONRiNXVFQU8quawUhpaanP8/H4+PiwnS+GlQjdbjeXmZnp0002mUxcZWWl2h9BE9jtdp/FmJubq7b5shM2IqyoqPDppiYmJtL5nkrU1dVxiYmJPt23cLpnIS9Ct9vt0wKA0Wjk7Ha72uZTON+nD9nZ2WExbQhpEfp680pKStQ2nTIJJSUlPt3PxsZGtU33i5AVYU5Ojk/zCbfbrbbpFAJut9unvcaCggK1TfeZkBNhV1cXZzKZJN2glJQUTW3+hgOtra1cSkqKpPtsNptD8kc2pEToy+JLaWmp2mZT/KC0tFTyPXc4HGqbLYmQEWFeXp6kG2Gz2TThbaEF+vr6JEe6hNIGf9CLkGVZyT6fFRUVaptNUQCpvWJWVpbaJosiqIN6u7u7kZSUJDodQ0pKCmpqamiioTDG5XJh8+bNonO4JiYm4vjx40GdDU6ntgF8NDU1YdGiRaIFWFhYiJMnT1IBhjkxMTFoaGhAYWGhqPpnz56F0WhES0uLwpb5TlD2hFVVVdi0aZPo+k6nkyYS0iBNTU1YvXq16Pp1dXVIT09X0CLfCLqecP/+/aIFaLVa4Xa7qQA1SmpqKtxuNywWi6j669evR1lZmcJW+YC6U9Kx5Ofni5505+XlqW0uJYiQsnoebCunQSNCKV4SNNqBMhlSVk+DycMmKEQoRYDhGlNGkQeHwyH6WcrPz1fbXI7jgkCEUgRIN98pYujs7AypaY2qIhQ7jk9JSQlJn0CKerjdbtEpLdUemqomQrF5RywWS1jEjFECD8uyop3ACwsLVbNTFRGKjRvLzMxUwzxKmCHW71StVdOAi1BsIG5GRkagTaOEMWJT+Kux8h5QETY2NlIBUlRDbBqUQEfqB8xt7dKlS1i8eLFgvYyMjICeB0jRFo899pioI+C6uroCdmpUQETo8XgQHR0t6IxtsVhQX1+vtDkUjbNq1So0NzcL1nO73QGJvgiI7+imTZuoAClBw5dffomEhATBelKCCPxBcRG++uqrgt2/yWTCP/7xD6VNoVAAAHq9XlRPePToUfzud79T3B5Fh6NiQ5L6+vpoHCAl4HR3d2PRokWC9SoqKvDEE08oZodiIhT7AVtbW7F06VIlTKBQBBEbk9jZ2Yn4+HhFbFBsOLpmzRrBOna7nQqQoiqpqakoLS0VrLd27VrFbFBEhC+88AJ6enqIdQoKCrBhwwYlLk+hSOKpp55CTk4OsU5PTw9eeuklZQyQe+OxsrJScDPUZrPJfVkKxW/MZrPgs6vE+SWyzgldLhdiY2MF67EsC71eL9dlKRRZEPv8yr1/KOtw9Kc//algndbWVipASlASExMDh8MhWG/79u2yXlc2EZaVlaGqqopYp7S0lC7EUIKatLQ05OfnE+uUl5fj8OHDsl1TluEowzAwGo3EOjabDZWVlf5eikIJCElJSTh79iyxjlzDUll6wueee06wTlCmmqNQeKipqRGsI9ew1G8R1tfXC0Y92O32oE5DTqGMJy4uDiUlJcQ65eXlsvg7+z0cnTJlCrF8+/bteOedd/y5BIWiGunp6Th69Cixjr8zOr96wt27dwvWefPNN/25BIWiKn/5y18E64jRAQmfe0Ixeyp2u516xSgEwzB0iB8g3n33XTz77LPEOv4EIfjcE/72t78llmdkZFABKgTDMFj3wofo6O5X2xRN8MwzzyAxMZFYZ8eOHT6371NP2NLSgpUrVxLr0PAk5dj3YQMqHRdw390xeOPFx9Q2RxOIeeZ9jQjyqSf89a9/TSwvKCigAlSI3iuDqHRcgGFGBP55wYWW82RHeYo8JCcnCzp5/+pXv/Kpbck9YUNDg2BYB/UNVY43iutw7EwvpkdMxZ07HBZER+FPOzarbZYmEOOU4nA4kJaWJqldyT3hL3/5S2J5RUUFFaBCdHT347OWbkyPmAoA0Omm4ELvIBpOdapsmTYwGAwoKioi1hHSx2RI6gnr6+uxfv163vKEhAS0tbVJNoIijl++/jG+6b8OnW7i3uyhnVtVsEibCO2NS+0NJfWEv/jFL4jlBw4ckNIcRQL1J9pxoXdwUgHeZG+j/FOnClZpk4qKCmK50M7BeESLsKGhgejQarVaJY+FKeL5c3kjDDMiJi2bHjEV7/39NBiGCbBV2uSJJ56AyWTiLT927BiamppEtydahH/4wx+I5W+88Yboi1KkcfDjJty6fYdYJ0Kvw58Pib/xFP/Yu3cvsfzVV18V3ZaoOaHQHglN3KscvVcGsf0PH/P2gqNhhli8/ouHkXwP/680RT6E5oZi9w1F9YSFhYXE8l27dolphuIDr5ccRVSkuNVmw4wI/LH4M4UtongRytK2Z88eUe0I9oRCPqIpKSk4efKkqItRpFFVfwZv/bVZVC/o5SZ7G0+uX45tm1MVtIziRag3FBP4K9gTCnmRSxn7UsTDMAze+muz6F7Qy/SIqfig9hz1Kw0QQvuGYoLZBXvC2bNnEw9zkTFZG2UUL+/+FOcuDYxszEvhzh0Os2dFojj//ylgGWU0Ho8HERH8IxWTyYTu7m5iG8SesKmpiSjAgoICARMpvlB/oh3/vODySYDAsCdN3+AQDn5MV0uVRq/XExND9fT0oKGhgdgGUYT79+8nvnnbtm3Ecop0GIbBzoPHJM0DJ4MOSwOHUKzh22+/TSznHY4KdbP0RF1lILmmSeXOHQ463RTq0hYANm3aREz5SQpq4O0JhXKIZmdnizSPIpbyT528rmm+oNNNwU32Nna+S/dwlUYojImkJ14RCg1F09PTBcyiSKGjux/v/f2038PQ8UyPmIr6U1000kJhhLJIkPQ0qQhdLhfxdF2hDMUUaXg8Hry8p1Z2AXqJitTjj+9+jt4rg4q0TxmGpIvq6mq4XK5JyyYVod1uJ17sqaeekmAaRYj/2FuLm+xtxdrX6aYgKlKPV946otg1KBA8zZdPV5OK8ODBg7wNmUwmep6EjFTVn/FrO0Is3m2LfR+Sl8spvpOcnEyMvOfT1QQRMgxDHIpKjZWi8NPR3S/ZLc0fpkdMRaXjAp0fKgjJg6y6unrScLMJIjx+/DjxIo8//rgPplHGo/Q8kA/DjAg6P1QQUuYJYHJ9TRBheXk5bwPx8fF0KCoTSs8DSdD5oXIkJycTyyfT1wQRFhcX8zYg5hBQijDlnzoDMg/kwzs/fKO4TpXrhzu5ubm8ZZPpa4wIhZI00aGo/7Sc71FkP1Aq0yOm4rOWblTVn1HVjnBEaJX00qVLY/4eI8LGxkbim4UyEFPIMAyDHX/+b9UF6MUwIwJv/bWZ+pfKzAMPPEAsH38k9xgR/u1vf+N9o81mo/lE/SRvb53k+EClMcyIwMt7auHxeNQ2JWzQ6/WwWCy85R9//PGYv0dE6PF4iIsyW7ZskcE87bLvwwZ8fYWRzS9UTm6yt/Efe2vVNiOs+NGPfsRbNj7wYUSEPT3kMw0eeughP83SLi3ne1DpuKDaQowQ0yOm4p8XXHR+KCNr1qwhlo+eF46I8NSpU8Q3LVmyxE+ztAnDMHhlf33QDUPHQ+eH8pKUlEQsP3369Mi/R0RIWpSxWq10PugjeXvrMG2qLiiHoeOJitTj5T10WCoHer0eVquVt/zYsWMj/x4RIclVbePGjTKZpi0Oftwka3yg0tD4Q3lZt24db1ld3f/u0Y6IsLm5mfcNdGtCOh3d/fig9lzQbEeIhcYfykdqKn/ayQk9odAmfUJCgkxmaYeX99QG/TyQD2/8IT3bwj9WrFhBLPfqTgcAnZ3kX724uDiZzNIG+z5swE32dsgMQ8ej001BhF6H10q+UNuUkEZIN17d6QDgzBn+pWmbzSajWeFPsG9HiIVuW8iD2WzmLbt48SKAf4nQ6eQ/2+6+++6T2azwxePx4I/Fn4XcPJAP77YFDXvynQcffJC3zHt8mg4gb0+sXr1aZrPClzff/0LwCLNQIypSjz1lNBrfV0iLmt7FUJ3H4yEe/jlv3jzZDQtHOrr7UX+qK+SHoePR6abgnxdcqD/RrrYpIcnChQt5y5qbm+HxeKAbGhoiNrJs2TK57QpLXisWf4RZqBEVqUfhB19SJ28fEPI0Gxoagu6bb74hVoqMjJTTprCk/FMnemXKmh2MeD/Xm+/T1VKpzJ07l1g+MDAAXV9fH2+F+Ph4wbPVtA7DMEERpKs03k186lsqDYPBQMzA1tPTA92VK1d4KyxevFgJu8KKff91EhF6UQcehzxRkXq8edAhXJEyBpKzy8DAAHSkjXoqQjLhuhjDh043BRd6B6lLm0RIIrxy5Qp5YWb58uVK2BQ2vHnQEbaLMXwYZkTg/39ATotJGQtph+Hy5cvQXbt2jbeC0KRSy7Sc7wmpCAk5YYZYumUhgbvvvpu37NatW9CRIurpogw/xRUnNdcLejHMiMC+j+gpwGKZMWMGb5nL5SLPCUmrOlpGy72gF2aIpX6lIiF1Zp2dneQtCjocnRwt94JeDDMicPDvp4UrUoidWX9/P3S3bt3irRAVFaWETSFNR3e/5ntBL8wQS1dKRTBr1izessHBQWG3NcpY/st+WjP7gkJERerx8dFzapsR9JBEeOvWLeho9LR4GIbR1L6gEF7nbupFQyYigt+bamhoiP/MespEjp78mvaC44jQ6/BFc4faZoQsDMNA53a71bYjZDhc/xWmTaUiHM20qTp8VPeV2maELG63m/aEYuno7g/rSAlf0emmgPXcQct5cgZ3Cj86uhcojsbTXXQoykOEXocG5yXhipQJGI1G2hOKxf7lRToU5WF6xFT8dxMVoS8YDAbo5syZw1uBZdkAmhO8MAxDh6ICXP/OQ1dJebh+/TpvmV6vhy46Opq3wtWrV5WwKeQ4ee6y2iYEPRF6Hc60k7M0aJWBgQHesoULF0JHCrMgubRpiXMXr9D5oADTpurwhfNrtc0ISkg7ENHR0dDNnz+ftwLdyB/m5Plv6HxQAJ1uCi50f6u2GUHJzZs3ecsWLFhA7gmpS9twQt++Qfo9iOH6dx76wz0JpJ5wzpw50JGctOlwFLgycB2s5w5dlBHJxR7q/DGe3t5e3rI5c+ZAt2DBAt4K7e00erpvgD/zAGUiV9101DCe0Udjj2fu3LnQmUwm3gpdXV1K2BRSXHUP0UUZkUTodbjST3+0xkPqzEwmE3SkMIuvv6arXfShkkb/4A21TQg6SCKcO3cu9KSesKenBwzDaDrXzHdseKZ+v3OHU6Rd5gZ/kLgWYRiGuDATGxsLPWlOCAxH/mpZhJER4ZXG4iZ7G7Gz+RMPUeSFtFEPDG9R6EmZoIDhISk9qTc8uMnehvXflyB7a5rapmiGjg5yrOWMGTOg0+v1SExM5K0kdJR2uDMzzM6YiJ49U20TNAVpeyIlJQV6vR56ALj33nt5zygkHaWtBWbNDN9TqQ4fPoxz58TliLl16xYef/xxpKamjvy/119/HRcvXpw0fQPLspgzZw527twpm72hCOkU7HvvvRcAhkW4Zs0aHDp0aNKKDoe2DwCZFqEH67kTdnllPB4PtmzZIuk9S5cuHSPChoYGVFVV8dZPTEzUvAi/+IL/ODnvKb46gHxgxdGjR2U2K7T4t1jtLkqNZ+bMmcS/xxMbG6ukOSHBsWPHeMu8utMBwge/dHd3y2hWaBEze5raJoQsWj/VS0g3Xt3pgOFhBgmx84ZwxGAwhP0BoErhHW5pFSHdeHU34o9FWiHV+uLMkoWzFdvcDmdIETpaoKmJ/9Acs9k88u8RET788MO8b6ipqZHJrNAk6fuxuHX7jtpmhBxJSUlqm6AqJN08+OCDI/8eEeFoZY6nuroaHk94um+J4b5l/wbWQ0UoFS2L0OPxEBc109L+12FiRISrV68mNqrlIWlSAn/2AcrkmM1m6PXh5fInBSG93H///SP/HhHhkiVLiG86fly7RyTr9XqsS46j80IJZGRkqG2CqgjpJT4+fuTfIyLU6/Ww2Wy8byJtymqBdauW4Pp3wTUkv3OHk/QK5JB6/fr1AbtWMHL48GHesvE/UGPGC1u2bOEVW1VVFTwej2aHGA/cG4cIvQ537nBBkeriJnsbd82T5kgw9J3HL1/YGzduEP8eTXJyss/XCXU8Hg+qq6t5yzdu3Djm7zGKeuihh4iNnzhxYsyEUkvo9XpY/30Jqr/swHSdui5sckVDWCwW0XUZhplw4mxaWhomy1u7bt06v+wKdU6cOEEsH6+zMSIU2rT/5JNPNCtCAPi/Dyeh0nEhKPxIZ830z5NHr9ejvr7erzZ27Njh1/vDlU8++YRYPl5nE8aW2dnZ2Ldv36RvPnDgAF577TU/zAttFs6bjXXJcTh2pjcohOilrKwMTqeTeBilF5ZlsWHDBmzYsCEAlmmTAwcO8JZlZ2dP+H8TRLhlyxZeEfb09KCtrU2wxwxnfrI5BZ+1dAeVCH/84x9Lqn/33XcrZAmlra0NPT38x8RNFrkyQYRr1qwhXuSTTz7Biy++6IN54cHCebORfv8iOE73BJUQ/aG2tlZSjtnY2Fjak/IgNBSdTF8TRGgwGGCxWHh3+3ft2qVpEQJA9g9Xof5UF6ZN1QXFSqm/FBcXo7y8XHT9rKysCSIsKyvDmTNnMG3a8Fz11q1bmDVrlubmjbt27eIts1qtk+ZrmnS/4fnnn+cVIR2SDv9QvfCDFLz11+awiLAQyjM0nsnmnl988cWEaUxJSYlfdoUaQkPRbdu2Tfr/J81q++ijjxIv9tFHH0kwLTyxpSfhbhpdMcLUqROH5s8884wKlqhHWVkZsZxPV5OKMCYmBlarlbexvLw8CaaFLwU563Hr9h0qxEkoLS1V24SAk5+fz1tms9kQExMzaRlvfvef/exnxAs2NDSINC18MRgM+M+fpQedO5vaJCQk4KmnnlLbjIBSW1tLLCfpiVeEjzzyCLHRPXv2CJilDZLvMeHp/3MvmCF6tLgXLU5XhPRAGlnyitBgMCArK4v3jYcOHYLL5RJhXviT8dhKbFp7NxUigNzcXM35jXZ3dxMDHLZv3070uSYeN/T8888TL/7OO+8ImKcdsremIf3+RZoXohZTHAqtAufk5BDLiSJMS0sD6cAYukAzlpeeSddsj8gwDFpbW9U2I+B4PB7igkx8fLzgyEAwLun3v/89fv7zn/OWl5WVaW4STiJ7axpmzZyGD2rPBWwPUUoA7Y0bNzB/vvyZAl599dUxgapa4f333yeWi3FWmMJxHHF9fbIQltEkJCSgra1N8EJao+FUJ/747ueIitTL7lVzk72NJ9cvx7bNqcKVRfD0008TnY7HU1JSork9QD5mz55NPPrM7XYLnmomeAStwWAgjmnb29sFl2e1SNr9i1H8+82YPSsSN9nbaptD5ObNm6LrFhQUUAH+i6qqKqIAc3JyRB0rKNgTAsPuOMuWLeMtp70hmX0fNqDScUG2XlHunpDiG3FxcUQ3tdbWVlHunaJyVSxduhQ2m413Gba9vR319fVIT08X05zmyN6aBuuDy/Fa8VH09l+Xfa7Y0tIiKRteUlKS5rYR5Ka2tpYoQJvNJtq/WlRPCAzfaFJa88TERE2nRRRL/Yl27PuoCcwQ63PPOL4nnDJFWhuFhYWaj4Txl6SkJN7jBAGgsbFxzAlWJATnhF6Sk5OJCYLPnj1L54YiSH8gAYd2bsVL28yYPSsSzBCLm+ztgPqfSo2aoIyltraWKMCUlBTRAgREDke97Nq1C2vXruUtf/LJJzE4OCilSc2S/kAC0h9IQMv5HtQ0tMFxugfsd3cQodepEixcX18PluXf37x+/TpsNptms+2NRijK6E9/+pOk9iR9o2lpaTCbzbxnrrndbrpvKJHke0xIvscEj8eDE6e70fJVL+qbvx7Z8I/QDw9WlA4gFsoT6nA4qAABvPvuu8TyxMREycnQRM8JvTQ1NQmmzGdZlt4wP+m9Moi+gWvo+uZbnL3YhwH3EFzfDoG5cQvMEIsfbVjh85ywqKhoglc/30pfRkYGiouLRS21hztCe+bA8I+V5IyEnA9YrVYOAO8rPz/fl2YpPkK6F5O9SkpKJrRhMpkm1KusrFTh0wQvubm5xO/VarX61K5PImxtbRW80Z2dnT4ZRJGOGOHZbDaupKSE6+rqmrSN0SIsKCjgWJYN8KcIbsQ8806n06e2fRIhx3Hc9u3bFflVoEhn9PduNBo5s9nM5ebmckVFRVxjY6MoQQHgcnNzub6+vgBYHHqYzWbi856VleVz25LnhF5cLhdiY2OJdSorK4mHzFDkwRvXGRkZ6fPczeVy8aZf0DplZWWCuV37+vp8/v58FiEA7N69G7/5zW+IdcQ4sFIowYqYxRh/nR/8EiEgvDKXlZWF9957z59LUCiqsWnTJmLUvNFo9HtvXLTHDB91dXXE8gMHDmj+bENKaHL48GHBZ/fTTz/1+zp+94QAkJmZKZjBmQ5LKaGEmDUPuUZ5sohQzLjZZrOhsrLS30tRKAFh1apVaG5uJtaRyynF7+EoMBz4W1FRQaxTVVUl6PJDoQQDr7/+uqAAKysrZfMKk6Un9LJ161YcOnSIWEdsoCOFogZi3DIzMjIEn3MpyCpCMcNSo9GI/v5+6ltKCTrEPL+A/OsbsgxHvRgMBsHVUrfbLflQSwolEIjJWme32+VfYPTLl4cHIUdX/Ms/kUIJFvLy8gSf2by8PEWuLetwdDSLFy/GpUuXiHXsdjs98ZWiOlVVVdi0aROxjpLpWxQTYXd3NxYtWiRYjy7UUNREzEIM4J9vqBCyzglHExcXJ7htAQDLli2jB8tQVKG7u1uUAO12u6LO7YqJEACeeOIJYp5+LytXroTHQ8/4owQOhmFEjdQKCwsVnzIpNhwdTXp6Oo4ePUqsYzab6cGjlIDg8XiQnJxMzJgGyL8fyEdAROjxeBAdHU1MGQ4MH6Qoh0MshUIiLS2NN1mZl/j4eLS3twdkP1vR4agXvV4vamWpuroaW7duDYBFFK2yadMmQQECwws2gXIoCYgIgeGFGofDIVjv0KFDePrppwNgEUVrCMUGenE6nYHNMqDI7iOBiooKUYmJsrOzA20aJYzJyMgQ9dzZ7faA2xZwEXIcxxUVFYn6QvxJnkOheLHZbKKet6KiIlXsU0WEHMdxhYWFolP1USi+wLIsZ7FYRD1nhYWFqtmpmgg5juPy8/NFfUEWi4XmwaRIwu12cwkJCaKeL7X9mFUVIceJc5wFwMXHx9OcmBRRdHZ2inqmoKBTthRUFyHHiRciAK61tVVtcylBjMPhCCkBclyQiJDjOK6goED0l1dXV6e2uZQgpLS0VPQzpPYQdDRBI0KOE79Yo/ZEmhJ85OTkhOyzE1Qi5Djx2xcAuMzMTLpgo3HcbrfoFVBAvW0IEgHxHZVKbW2t4GmoXoxGI5qammhMogYRGwvoJVjPRgmY25oUNmzYAKfTKaqu2+3GsmXLaDpFjbF7925JAmxsbAxKAQIBiqLwFZfLhZUrV056guxk2Gw2lJWV0UzfYYzL5cLGjRsF84KOprOzE/Hx8Qpa5R9B2RN6iYmJQWdnp+hfsKqqKhiNRnr2RZhSVlaG2NhY0QI0m81wu91BLUAACLqFGT6kbGEAw36nbrdbbbMpMtDX1yfa/9P7CpY9QDGEjAg5juPsdrukGwGo4xVPkZqsBykAAAQ1SURBVA8pe3/eV2VlpdpmSyKkRMhxHNfV1SXaJ9D7slqtXGdnp9qmUyTQ2trKpaSkSLrP8fHxXFdXl9qmSybkROhFiqub95Wfn0/3FYMct9staePd+8rNzVXbdJ8JWRFyHMfV1dVJvlkAuIqKCrVNp0yCFEeNcJpyhLQIOW74lzMzM1PyjUtISOAcDofa5lM48dkWxr9sNltYLL6FvAi9VFZW+nQjLRYLFaNK2O12Lj4+3qf7Vlpaqrb5shE2IuS44UjqrKwsn25qSkoKjc4IEJWVlZzJZPLpPlmt1rCLKw0rEXpxOByc0Wj06SYnJibSOaMCsCzLlZSU+HxfwmHux0dYitCLlNCoyV4FBQUhueQdTLS2too6Kk/oPoQzYS1CjhveV/Rl4Wb8EChcf4WVgGVZrqKigjObzX597xkZGZr4EQx7EXpxOp2S4s74Xnl5eZzT6VT74wQljY2Nfvd6ADiz2ayp71gzIvRSV1fn84rc6JfRaOQKCws1n/PG6XRK9uvle5lMJk2OODQnQi91dXWS3aJIgszLy+McDkfYe+SwLMs5HA4uPz/fr0WW0a/ExERNis+LZkXopbGxUbKHvtDLYrFwRUVFnNPpDHlRsizLOZ1OrqioiLNarbJ+Tzabje7RckGa3kIN2trasGfPHuzdu1f2ti0WCzZu3IjU1FSsWLECcXFxsl9DLrq7u3Hu3Dk0NTWhpqZG8FxJX8jNzcVzzz1HU5L8CyrCcTAMg7KyMrz00kuC5yn6Q0pKCh555BHcc889+P73v48lS5Zg7ty5AckKwDAMBgYG0Nraiq6uLpw/fx5HjhyRFK0ulfj4eLzyyiv44Q9/SDMfjIOKkEBDQwPefvttHDhwIGDXNBqNSEpKwrJly7BkyRLMnj0b8+bNw8yZMxEVFYU5c+YgIiJipP7MmTNx48aNkb9ZlsXVq1dx/fp13LhxA1euXMHg4CA6OjrQ2tqKM2fOKPrjMp6srCzk5OQgNTU1YNcMNagIRcAwDI4cOYL9+/ejurpabXOCHpvNhmeffRaPPPII7fVEQEUoEZfLBbvdjg8++IDmshmF1WrFtm3b8Oijjwb2gM0wgIrQDxiGwfHjx1FeXo7i4mK1zQk4OTk5+MEPfoBVq1bRHs8PqAhlpK2tDZ9//jlqampQXl6utjmyk5mZic2bN2P16tV0ZVNGqAgVwuPxoKOjA42NjTh27Bjef//9gC6I+IvFYsHatWthNpuxcuXKoN5WCXWoCAMIwzC4ePEiOjo6cO7cOTQ0NOD06dO4dOmSKvZ4V2JXrlyJ5ORkmEwmLF++nPZyAYaKMAhgGAbfffcdOjs7cfXqVXR1deHy5cu4du3ayN+9vb24fPnySH0AY3pWo9EIg8EAvV6PhQsXIjo6GgsWLMC8efMwa9YszJ8/H4sWLUJUVBRMJlPA9iQpwvwPq9C4srHlFN4AAAAASUVORK5CYII=;" parent="1" vertex="1">
          <mxGeometry x="600" y="485" width="100" height="100" as="geometry" />
        </mxCell>
        <mxCell id="kGaND2a8ccCfyIjc9hiN-15" style="edgeStyle=orthogonalEdgeStyle;rounded=0;orthogonalLoop=1;jettySize=auto;html=1;entryX=0;entryY=0.5;entryDx=0;entryDy=0;fillColor=#60a917;strokeColor=#2D7600;" parent="1" source="kGaND2a8ccCfyIjc9hiN-5" target="kGaND2a8ccCfyIjc9hiN-14" edge="1">
          <mxGeometry relative="1" as="geometry" />
        </mxCell>
        <mxCell id="kGaND2a8ccCfyIjc9hiN-5" value="" style="outlineConnect=0;dashed=0;verticalLabelPosition=bottom;verticalAlign=top;align=center;html=1;shape=mxgraph.aws3.thermostat;fillColor=#5294CF;gradientColor=none;" parent="1" vertex="1">
          <mxGeometry x="70" y="380" width="79.5" height="79.5" as="geometry" />
        </mxCell>
        <mxCell id="kGaND2a8ccCfyIjc9hiN-16" style="edgeStyle=orthogonalEdgeStyle;rounded=0;orthogonalLoop=1;jettySize=auto;html=1;entryX=0;entryY=0.5;entryDx=0;entryDy=0;fillColor=#60a917;strokeColor=#2D7600;" parent="1" source="kGaND2a8ccCfyIjc9hiN-6" target="kGaND2a8ccCfyIjc9hiN-14" edge="1">
          <mxGeometry relative="1" as="geometry" />
        </mxCell>
        <mxCell id="kGaND2a8ccCfyIjc9hiN-6" value="" style="outlineConnect=0;dashed=0;verticalLabelPosition=bottom;verticalAlign=top;align=center;html=1;shape=mxgraph.aws3.thermostat;fillColor=#5294CF;gradientColor=none;" parent="1" vertex="1">
          <mxGeometry x="70" y="240" width="79.5" height="79.5" as="geometry" />
        </mxCell>
        <mxCell id="kGaND2a8ccCfyIjc9hiN-17" style="edgeStyle=orthogonalEdgeStyle;rounded=0;orthogonalLoop=1;jettySize=auto;html=1;fillColor=#60a917;strokeColor=#2D7600;" parent="1" source="kGaND2a8ccCfyIjc9hiN-7" target="kGaND2a8ccCfyIjc9hiN-14" edge="1">
          <mxGeometry relative="1" as="geometry" />
        </mxCell>
        <mxCell id="kGaND2a8ccCfyIjc9hiN-40" value="/" style="edgeLabel;html=1;align=center;verticalAlign=middle;resizable=0;points=[];" parent="kGaND2a8ccCfyIjc9hiN-17" vertex="1" connectable="0">
          <mxGeometry x="0.4247" relative="1" as="geometry">
            <mxPoint as="offset" />
          </mxGeometry>
        </mxCell>
        <mxCell id="kGaND2a8ccCfyIjc9hiN-41" value="/TempControlHoujie" style="edgeLabel;html=1;align=center;verticalAlign=middle;resizable=0;points=[];fontColor=#408218;" parent="kGaND2a8ccCfyIjc9hiN-17" vertex="1" connectable="0">
          <mxGeometry x="0.469" relative="1" as="geometry">
            <mxPoint x="-74" y="-20" as="offset" />
          </mxGeometry>
        </mxCell>
        <mxCell id="kGaND2a8ccCfyIjc9hiN-7" value="" style="outlineConnect=0;dashed=0;verticalLabelPosition=bottom;verticalAlign=top;align=center;html=1;shape=mxgraph.aws3.thermostat;fillColor=#5294CF;gradientColor=none;" parent="1" vertex="1">
          <mxGeometry x="70" y="120.25" width="79.5" height="79.5" as="geometry" />
        </mxCell>
        <mxCell id="kGaND2a8ccCfyIjc9hiN-21" style="edgeStyle=orthogonalEdgeStyle;rounded=0;orthogonalLoop=1;jettySize=auto;html=1;entryX=1;entryY=0.5;entryDx=0;entryDy=0;fillColor=#60a917;strokeColor=#2D7600;" parent="1" source="kGaND2a8ccCfyIjc9hiN-8" target="kGaND2a8ccCfyIjc9hiN-14" edge="1">
          <mxGeometry relative="1" as="geometry" />
        </mxCell>
        <mxCell id="kGaND2a8ccCfyIjc9hiN-8" value="" style="outlineConnect=0;dashed=0;verticalLabelPosition=bottom;verticalAlign=top;align=center;html=1;shape=mxgraph.aws3.thermostat;fillColor=#5294CF;gradientColor=none;" parent="1" vertex="1">
          <mxGeometry x="867.5" y="240" width="79.5" height="79.5" as="geometry" />
        </mxCell>
        <mxCell id="kGaND2a8ccCfyIjc9hiN-23" style="edgeStyle=orthogonalEdgeStyle;rounded=0;orthogonalLoop=1;jettySize=auto;html=1;entryX=1;entryY=0.5;entryDx=0;entryDy=0;fillColor=#60a917;strokeColor=#2D7600;" parent="1" source="kGaND2a8ccCfyIjc9hiN-9" target="kGaND2a8ccCfyIjc9hiN-14" edge="1">
          <mxGeometry relative="1" as="geometry" />
        </mxCell>
        <mxCell id="kGaND2a8ccCfyIjc9hiN-42" value="/TempControlHoujie" style="edgeLabel;html=1;align=center;verticalAlign=middle;resizable=0;points=[];fontColor=#408218;" parent="kGaND2a8ccCfyIjc9hiN-23" vertex="1" connectable="0">
          <mxGeometry x="0.7087" y="-1" relative="1" as="geometry">
            <mxPoint x="65" y="-19" as="offset" />
          </mxGeometry>
        </mxCell>
        <mxCell id="kGaND2a8ccCfyIjc9hiN-9" value="" style="outlineConnect=0;dashed=0;verticalLabelPosition=bottom;verticalAlign=top;align=center;html=1;shape=mxgraph.aws3.thermostat;fillColor=#5294CF;gradientColor=none;" parent="1" vertex="1">
          <mxGeometry x="867.5" y="380" width="79.5" height="79.5" as="geometry" />
        </mxCell>
        <mxCell id="kGaND2a8ccCfyIjc9hiN-64" style="edgeStyle=orthogonalEdgeStyle;rounded=0;orthogonalLoop=1;jettySize=auto;html=1;exitX=0.5;exitY=1;exitDx=0;exitDy=0;entryX=0.5;entryY=0;entryDx=0;entryDy=0;fillColor=#e51400;strokeColor=#B20000;" parent="1" source="kGaND2a8ccCfyIjc9hiN-14" target="kGaND2a8ccCfyIjc9hiN-4" edge="1">
          <mxGeometry relative="1" as="geometry">
            <Array as="points">
              <mxPoint x="517" y="340" />
              <mxPoint x="650" y="340" />
            </Array>
          </mxGeometry>
        </mxCell>
        <mxCell id="kGaND2a8ccCfyIjc9hiN-70" value="/ConnectStatus" style="edgeLabel;html=1;align=center;verticalAlign=middle;resizable=0;points=[];" parent="kGaND2a8ccCfyIjc9hiN-64" vertex="1" connectable="0">
          <mxGeometry x="0.7155" y="-4" relative="1" as="geometry">
            <mxPoint x="54" y="32" as="offset" />
          </mxGeometry>
        </mxCell>
        <mxCell id="kGaND2a8ccCfyIjc9hiN-14" value="" style="shape=image;verticalLabelPosition=bottom;labelBackgroundColor=default;verticalAlign=top;aspect=fixed;imageAspect=0;image=data:image/png,iVBORw0KGgoAAAANSUhEUgAAAZsAAAFnCAYAAABwyOSaAAAgAElEQVR4nO3deZxddX3/8dc55+7L3Nn3yWRPIIEkhLWglJZFxAWhLApuiFRbXLDro7/fr7+2tg+7/bAV0aqtpeICiKgtBbVqraKILJGEJSGTdTL7PvfOnbnbOb8/BjRggEzmnnvu8n4+HnmEPDK55zNMct/z/X4/3+/XcBzHQURExEWm1wWIiEj1U9iIiIjrFDYiIuI6hY2IiLjO53UBIuXONE0Cfj/BYIBgIEAgECCYT9Hmz9EQNgn5DALPf9uWKcBC3mEsXWDCiZAxgmSyWbLZLJlslkwm6+0nI+IRQ91oIr/K5/PR3lhHT1szK+t9rEs/y5o62JiA7hgkAuB7lXmBnA2TGdg3A/tT0DcNe+Jb6J+Y5fDQBOMzSWzbLs0nJOIxhY3IURriUc5d18J5XQFOyu5lVR2siEHIKs7rz+bgcAoOzMCToU38sG+SJw5PkUrPF+cBImVKYSM1zTRNAoEAvXGTazfFuag1Ta8/RX0Q/C6vaC4UYCoDfflG/rPf4K5n0kzO58lmNdUm1UdhIzWrtbGe7d0x3lQ/wNWrIerhCqYDjMzD3fvgwbmVPLZvWKMdqSoKG6k54VCQ8zZ08q7mg5zfAU0hMLwu6nkOMDgH3xiOcc9AnB0Hxsjmcl6XJbJsChupKRtaInxoW5ALG6fpiZVPyLxUzoZDKfjmeDMf/9ks46mM1yWJLIvCRqqe3++ntzHINd1zfHgzxP1eV7Q0/Un426fgwZEYQ1NpCoWC1yWJLJnCRqpacyLGlVvbuaZuH6c3Q6BIXWWlNpeDHw3DF2fW8Z87DjKv/TpSYRQ2UpUsy+Sc3no+vH6O81qy1Ae9rqg4BufgwbE4n34anhlJaZ+OVAyFjVSVYDDASSu7eF/HEd7cnScRBLNcF2ZOgAPYDkzMwxf2+/lsfxNDo+Pk1EQgZU5hI1XBsixWtjfyhhU2v71iktVxrytynwM8Mgp3jnXx4N4kg+MzXpck8rIUNlLxfJbJddvbeVvLEKe3QMRXvl1mxeYAMwvw8DjcdqCVH+wd09SalCWFjVSsaCTClp4Gbukd5dc78sT8tRMyL2U7MLEA/34kyGcGmtnTP6pDP6WsKGyk4vh8Fqes7uL6pn6uXg0tYa8rKi/9KfjMvhBfH6rj4NC4WqWlLChspKJ01Ee5amOIa9on2dZUXYv/xbRQgJ8Mw91jrdz31BTJBY1yxFsKG6kI4XCI3+gN8wdrp9ncBNEanjI7XrYDsxn46ZjBX+xp5OmhJJmMTiIQbyhspKzFImFOX9nAu9qGuGIVv7ikTJZmOgNf6oO7J7t5Yt8g+bym1qS0FDZStta1NXLTmhne0GPTG9OU2XLZDjw7Df92MMp9+wyOTCe9LklqiMJGyk5dLMpVvQY39M5xSlvlHjFTrpJZePwI3H44xrcOLWhDqJSEwkbKRmOijjObbf70lDlOa/a6mtrw9QNw24EGdo0skJxLe12OVDGFjXjO5/Nx7pomrmkZ5fJV0Fgl55hVAtuBI6nF0PniaCu7Do54XZJUKYWNeKolEeN9Z7VwTf1BemPuX8Usx5a14emZAJ8fauXunRPMpjTKkeJS2IgnOlsaeV1Lkg9uclgTLyhkyoDD4qVtT0z6+X87DX40HmB6Vk0EUhwKGympuliU8zotbliZ5OJutTKXq7kcfLkP7hlu4NGBORYWtD9HlkdhIyVzSncD79sW45LoETqjamUud/kC7E/CA/OrufWhYUZn5rwuSSqYwkZc5ff7aEtEuHqVzYfWz9EY1LpMpcna8FzSx23P+vnWoJ+x6aROlpYlU9iIa1obE7yxaZZ3nwxbm8CnkKlomcLi1dT/tD/IjwZ9zCRTXpckFURhI0UXDAQ4b10L7+yZ5ZK2FAm/1xVJMQ2m4f7JVu7YbfNk/6ROlZbjorCRovH7/fTEfdyyPcgbmmdoDYOl0UxVytowNAd39DfwuV3zTM/nyOfzXpclZUxhI8tmWRYr62O8ITHLB86C7qjXFUmpFBzYOQmfeRi+k61jcFJXU8uxKWxkWSKhIL+1vYe31e/jzOevZJbaM5OFHwwbfHaoh4f2DJLJ6rw1eTGFjZwQy7LY0h7mw5sdLmhO67ZMwQEOJeGB8QS37Vjg0HRWXWvyCwobWZJgMMCqrnbe197P29ZBnRb/5RgmM/CxPfXcPxiif3hM6zmisJHj192S4IqNca5tGmBbs27KlFe2UICHh+HumVV8/ckhZubmvS5JPKSwkVdlmiYXb2jgljWTbGuCuK5kluPkABML8IORALfuCfHEYTUQ1CqFjbysSDjEttXtvL+jn0s6bWIBhYycGNuBqQzcfcDiX4Y7ee7wILmcptZqicJGfoVlWWzobuGqzhnesXKBLrUySxE9MwWfPdzIg4cd+sem1URQIxQ28iLxsJ/rT6nn6rZxtjfrSmYpPgdI5uDRYbhjuJWvPqkL22qBwkYAqIvHOK0jzJ9unGBrg0NY6zLiMtuGuTw8MGjxyYMtPD0wTXpeTQTVSmFT43yWxbkbu7imsZ8rV0Ei4HVFUosG0/CVPvjSaAe7Dw9raq0KKWxq2Ir6GNdthLd1z7EmoftlxFsFBx4ZhbuHGrj36TQT8wtelyRFpLCpMaZpEo9FeWO3zft705zUDhGty0iZcIDZHPz8CHzsQIKfDWdIpzW1Vg0UNjWkPh7lzK4wv90zwet7tSYj5W2+AF/aC18ebeeJQxMsZLJelyTLoLCpEdtWtXJD1xiX9kBXVEEjlaHgQN8sfGO/xecHEhwanvC6JDlBCpsqZpomjXVRrtsU5V3dE6yN5nUls1SkhTzsSMX4bF+Q+/emSc6lvS5JlkhhU6VaGuu5qDnJLZttNjVo8V+qg+3AQyPwl09F2TkJ07O6mrpSKGyqTDgU4jWrolzTPslbVkBEpzJLFRpOw9f74a7BJh49MKlW6QqgsKkibYkIf/KaZi6N9tMZBZ+mzKSKZW04mIQ7Rnv4l8fGdKp0mVPYVDjTNFnRUs+bW5PcvLlAZ8TB0pSZ1JBsAXbPmHziKYPvjMcYnZz2uiQ5BoVNBWuoi3NRT44bezOc3aZzzKS2zRfg/kNwx5E4Pz2SY077c8qKwqYCWZbF6SvquWmTyUWJcVp1JbMIsHje2sE5eHC2i089PsO+0aTXJcnzFDYVJOD301kX4P2b4LoVaeoDWpcROZacDcPzcOvTYb7ZbzGanNfV1B5T2FSI3uZ6LgvP8O4zUCuzyHHK2otXU38hdTL/ueMg08k5r0uqWQqbMhcM+PnNkzp4f+cRzm51iKuVWWTJpjLw7yMx7jgQ4dED4+TzBa9LqjkKmzIVDAbYmDD5wFYfF7XM0RrWETMiy5G3YWge7huq47YdGUbSBXK5nNdl1QyFTZnx+/2s7W7jLR1zfGDNNA1BrysSqT7PzcDtA11860CG/pEJbQotAYVNGamPhXnrtjaurj/Eac0QVCuziGuSOfjJCHxhvJf/ePII2ZwaCNyksCkDfp+Ps1aE+YOTFjirKU8ioCkzkVJwgJE0PDgS4ZO7HHZPZCgUtJ7jBoWNh4KBAFvX9XBj034uX4UW/0U8NLEAn99r8YXhNg4OjpDTSKeoFDYeME2TVa31XLHa4PquSTYkvK5IRGDxVOmHR+Cu8Q7+ffcsI9M6VbpYFDYeuG5rE+/tnuSUZoj4NGUmUk4cYCYDj0/AX+1K8JN+nbVWDAqbEknEY2xfkeCDPUP8ZoeDz1LIiJQzB0hm4esHDf5ltJudB0ZYyGS8LqtiKWxcZlkmW1Z18PbWQa5YCW0RrysSkaXaPwt3HAhz30CE/cO6P+dEKGxc1NJYz3Vr4NquGU5pQkf/i1Sw+Tz8bBTuHGzka7vnmF9Y8LqkiqKwKTLTNEnE45zfCX98ap4NkTQhTZmJVAUHSOfg4ZkYf7UzwFOjCyRTOm/teChsiigSCnLu2iaubR7iylUQ0qZMkarksNgq/ZU++NpUFz/bO6iptVehsCmSVR1NfKB3htf1FlgZ06nMIrUgb8PuabjzUIS7DwYYnpjyuqSypbBZBtM0aW2s5/JemxvXZlgfXSCg+2VEaorjQDoPO9Nxbttl819HHE2tHYPC5gQ119dxZqvNH2yY46xWjWREBAoOfHU/3HGkkccG5kil1UTwAoXNElmWxbmrG7i+e4JLO6FFVzKLyFFsBw6l4P5B+Of9jewZmPC6pLKgsDlOpmnSFA/zvm1x3tkxQlsY/JoyE5GXsVCAvpSf2/fXcd+eNDOptNcleUphcxwa6mJc1j3HBzfA5kZNmYnI8cvb8KNh+PhOix+OWTV7CoHC5lWsbWvk5o1p3tqbIRHwuhoRqVSDafjUgQa+/GyOwemk1+WUnMLmZViWxTkdQf5kwzzn9aIuMxFZFgdI5eC7e+HP9obYMzbvdUklpbA5hmgkzPWrC/zvLTmawqCcEZFisYGhNNz4SJyfDmRr5tgbhc1LNDfUc8NJFn+4dpKYps1ExCWHU/A3Bzu456mZmtiX4/O6gHLSWJ/gI6cFeW/XGFEFjYi4qCcG/2f1EBGrHb/fTy6X87okVylsnpeoi/PXpxe4buUsflMHZ4qIuwygPQJ/sX4Yv9lGJBwmPV+96zgKG6Cxvo7f2+bn3at1BayIlFbYgj9cOULG6SIei1btlFrNh000EuZ9W6PctEK7fEXEG4kg3NIzwFS6tWqn1Go6bHw+H9eu9/Ph1RMkgl5XIyK1ygC6ovAX60c5NBnzuhxX1HRX71kdAf5q2wItIa3RiIi3DKA7Bh8/LcX6tjqvyym6mg2bzpYG/td2izYdpCkiZWRjPXx4e5jmhoTXpRRVTYZNOBjkfesznNOghgARKS8BE97SNMrlKwoE/H6vyymamgsby7J4/bZe3t47T1jXNotIGWoIwkc2zrFlbbfXpRRNzYVNSzzMexr20hHxuhIRkZe3Og4f6OzHZ1XHd8U1FzZvXGFzXofXVYiIvLrXdRX4jXUNXpdRFDUVNl0NEX7/pHmd4CwiFSHuh1tWT9DWEPe6lGWrmbddn8/i3VvitKv7TEQqhGHAlia4dH0Cq8Kn02ombNZ0NHNR3SiBmt7GKiKVpiEIr4sN0NpY73Upy1ITYePzWbyuaZJTGrV5U0QqiwFc2A2n1816Xcqy1ETYtLc0cXFHnohGNSJSgWJ+uG5VHtOs3Lfsyq18CdbEbM5o9boKEZETd0EntNVHvS7jhNVE2LylbYa66tmIKyI1KBGAt2yo3EM6qz5swqEgl63wugoRkeW7bKVJOFSZR9RX/SrGlvYwrcEZr8uoPYYBoQRGrAnCCfD5wRfEMEycfBbsPGTnIZPEmZuC+Qr8Gpk+iDZihBMQrgPLD74AGCYc9Tk68zOQnoKFFOB4XbVUsN78IBs7KnNNoOrD5qJ19ZhU4BtZRTEW32TrWjE2XIC17lyM9o0Y0SbwB8H0YZjm4pswBjg2OA6OU4BCHvJZnLlxnOHnsA8+iv3Md2F6CAoZcMrkzdn0gS+A0Xs65tpfw+jegtG2FiMYA8sHlh/DMBdD9lc+x9zi55iawBl6Fnvfw9h9D8HUIOQzKIDkeLWEYPuqFq/LOCGG45TLv+biCwV83PvrBX5zhVqeXRNOYGy8AN+578bceAFGaPk7nZ1sGnvvQxR+/G/YT38b5jy8RdUwMVZsw9zyJqyzrsVoXYdhFOFvUy5D4bkfUvjBp7H3/ghS48t/Tal6tgOfewr+cIePTLaybvOs6pFNb2s9rbEJBY1bmldhXfC7+M67ASNavPObjEAEa9PFmGvPpfDwFyh8++9xxvYX7fWPmxXAPPMafK/7Q8yOk6GYbaf+INbJF2Ku3E7hsXspPPAxnImDxXt9qUqmAb310NpYeXfdVHXYrGytpyHg4XfF1Szeiu+Nf4p1xjUYAXfOADKCUaxzbwBfkPzX/zfMDLnynGM/3MQ6+21Yb/4oZqNLx7wbBka0Eevcd2KE68h99m1oSk1eTXeUirxYraq70Va0JEgEvK6iOlkXfgjr197pWtC8wPAHsc6+Huucdyyum5SIsf41WK//E4yGLvef5QtinH4V5nk3uP4sqXw9UWgOV95bd+VVfJwsy6KdaaLaX1N8dR34XntTcdYujoPhC2Cd+y6INZXkefjDWFsvx2xdU7rP0TCxzrhmsXNP5BXEA9Ca7PO6jCWr2rAJBfw0JvdjacGm6MytbyzdG/8Lz2xbh9mzrTQPC8UXP0ejdP88DMPAaF6J0XFyyZ4plck0oD0M/gq7MrpqwyYcCtKgKbTiMyysUy8r/XNNC3PzJSV5lNG2DqN5VUme9SLRRozWtaV/rlSc9igVd05aZVW7BOFgQOs1bki0YTT0lGx66WhGz9aSPMfs3Ly4Z6bEjEAEo64y91BIaTWHwLIq6+27sqpdAp/PIljZdw2VJSPRAUFvDgM06jsXd+m7za3us1dh+IIYwcq/kVHcF/XhyTd8y1G1YWOZFn6FTdEZ0SYMf8ibh/uCEHV/rcgowTOOyTQhEAFDf3HllYUsMCpsB2H1ho1lEqjaz85D4fji0TQeMCwLI1Tn/nNCHp6saxjPH3kj8vICpkY2Uu2sAJgefedtmODyvh4RcYfCRpbEMK2StgS/+OFGaYLOV5lHuIuUM4WNLI0vUNwzwpbEKE2DgKU2RpFiU9jI0hgWnp2hbZQobESk6BQ2IiLiOoWNiIi4TmEjIiKuU9iIiIjrFDYiIuI6hY2IiLhOYSMiIq5T2IiIiOsUNiIi4jqFjYiIuE5hIyIirlPYiIiI6xQ2IiLiOoWNiIi4TmEjIiKuU9iIiIjrFDYiIuI6hY2IiLhOYSMiIq5T2IiIiOsUNiIi4jqFjYiIuE5hIyIirlPYiIiI6xQ2IiLiOoWNiIi4TmEjIiKuU9iIiIjrFDYiIuI6hY2IiLhOYSMiIq5T2IiIiOsUNiIvZRjePdv0gaF/llJ99Lda5KUCEe+ebVoKG6lK+lstlcMwwR90/zGW3/VnvPzDDfBwYCXiFoWNVA7DxPCH3X9OtMH9Z7wcw0RpI9VIYSOVw7QgknD3Gf4wRtjlZ7wSX2Bx3UakyihspHL4Ahj13a4+wmheBf6Qq894xecHoouBI1JlFDZSOXxBjLZ1YLn3Zmz0nAqlmKp7OdEGCHj4fBGXKGykYhimhdFxErSsducBpg9z3WshGHXn9Y+D0dCFEfFwzUjEJQobqSjmyu1Y238LfEXuSjMMjA0XYJ50IYbl3ZqJ2b4Ro2szahKQaqOwkYpi+IJY59+EedoVFPUNuXUd1oUfwmx1adR0vHwBrNfeBBrdSJVR2EjFMRt78F3511iX/hHEW5f5Yn7Mky7E/87PYW26eLHjzWPmuvPwveWjy//cRMqIeiylIhmNPfgu/yjWb96M/ez3sZ+8H2d0H2TncPIZsAvg2Ef9AQssC8MKLHab1Xdhrn8N1skXY3RsBH8Iw8tjao5iWD6s196EefLFFJ74Gs5T38GZHVr8vAr5X35eduHFf9ApgPOLXzz/+w7Y9i9/dpzFP/+Ln4/6IeIihY1UJMMwwPJh1HdhnvN2OPt6nOw8TmocUhOQm4dC7oUPXuxgC0Yg0oARbcQIhMv6WBjD8mG0rcW89I9wLv59nNQoJMdhYRYKeRzHhnx2MTRekF/4ZWg4zuKv7cWPc+z84sfbBShkF0OrkFt8rfzC4n+/EGaFHE4ht/jxz38MhczzH5sD++jfO+pjs/OQSf7y/7vIURQ2Uh0MAyMYwQiugKYVXldTVIZlYSQ6INHh6nOcQu75MMqDnf/lz3ZhMUDsPE7h+V/bz4fQCx9fyOHkMzgLSZg6gj34NPaz34fx/a7WLJVDYSMiwPNnwll+eIWj4V5totFxFqfvrHwWZ2EGe/d/U/j+J3EOPqYRT40r33kEEak4hmEsTgEGI5iJDnxnvQ3/79yHefb1OoanxilsRMRVZqId35v+L8bJF3pdinhIYSMirjMaerDO/22oa/O6FPGIwkZEXGeYJubqszBWnuF1KeIRhY2IlIQZb8Vs21AWG2el9BQ2IlIapgUt3l7hIN5R2IhIyZiJjuIfoioVQWEjIqUTjGoarUYpbESkZAzLV9bHBIl79FUXERHXKWxERMR1ChsREXGdwkZESsZ54S4dqTkKGxEpnVxGF7XVKIWNiJSORjU1S2EjIiKuU9iISOloj03N0ldeRErHH1Dg1Ch91UWkZAzDBOPVLpeWaqSwERER1ylsRETEdQobERFxncJGRERcp7ARERHXKWxERMR1ChsRKR1/CL3t1CZ91UWkdAxD+2xqlMJGRERcp7ARERHXKWxERMR1Pq8LEJFX4Tg42TTO9CDkFo7vzwQjGPVdGP6Qu7WJHCeFjUg5chwcx8aZGqDwo3/GfvrbMDcFTuH4/rzpg0QH5pY3YJ19HUZd2+IhmF7zhdQgUKMUNiJlyFmYpfDwneQf/FuY6j+xFxl5jsJz/0Ph+5/Ef+0/Yp58EUYwUtxCl8rUqc+1qgy+1RGRl8r/4DPkv/GnJx40R5s4RO4rH6Cw4+s4uczyX0/kBChsRMpMoe/HFL7995CeKt6LTvaTf+BjOMN7wHGK97oix0lhI1JGnPlZ8g98DFJjxX/xwafJf+8fcRQ24gGFjUgZsQ/vwBl61r3X3/FNyKZde32Rl6OwESkjzmgfJMfde8DcxOIzvGIFoRy64qTk9FUXKSfpKci5O/Jwpgdcff1XZFrqRqtRChuRcuI44PqSitZspPQUNiI1RyMLKT2FjUitCXi8sVNqksJGpMaUxbE1UnP0t05ERFynsBGpNToJWjygsBGpNaaH5+9aftSgUJsUNiJSMoblw9A+m5qksBGpNb6A1xVIDVLYiJSTQPj5qSYXhRPuvr7IMShsRMqIUd8FERfDINaEUdfu3uuLvAyFjUgZMXq2YDR0u/b65skXg6ULeqX0FDYiZcRoXol11nVgubCuUteBdf5NOghTPKGwESkjhmFiveY9mJsvKe5R/KE6fL/xu5i9p6sbTDyh8bRImTFCcawrPoZjGDi7HoRCbnkvaAWwLvwQ1mtvxAjFilOkyBIpbETKkNlxEv7rP0Ph0bsofP92SI5CIQuOfZwvYIEvhNG+Ed/Ft2Ce8nqMYNTdokVegcJGpAwZpolR34550Yexznk7Tt9DOCN9kJ07vheINmH2bMFYsU0hI2VBYSNS5sxYE2x9s9dliCyLGgRERMR1ChsRKR3TQgdx1iaFjYiUji8Ipt52apG+6iIi4jqFjYiIuE5hIyKl4ziLP6TmKGxEpHTymePfmCpVRWEjIqWjoKlZChsREXGdwkZERFynsBEREdcpbESkZBzHQb1otUlhIyKls5RrEqSqKGxEpHQKBe2zqVEKGxEpHVsjm1qlsBGR0slnNbKpUQobESkdhU3NUtiISOmoQaBmKWxEpGSc7ILCpkYpbGRpHHUTyTJk5sDOe12FeEBhI0vi5DJgF7wuQyqUMz8DBYVNLVLYyNIUsoujG5ETMT+jkU2NqtqwsW2bvGZ7ii+bhkLO6yqkQjnzMxoZF0HeWTz6p5JUbdgUbJuc1iGLzklNLC7yiiyR49g4s6OL7c+yLAsFqLRT5qo2bHK5PAsarRedkxxdHN2ILNX8LCRHocLeJMvRXE4jm7KRyeaY02xP8U0NQnpKHWmyZE5ybHFkI8s2nV1cKqgkVRs285kskxmvq6hC+QXsg4/re1NZGsfBmerHmTzkdSVVYWwebLuy/hVWcdhkmPA3UWFfj4pQ2HGfFnllSZx8DufAozDR73UpFc8BBlJQKFTWv8GqDZt8vsBodDVprdsUnbP/Z9iHnvC6DKkkc+MUHv8aUFlTP+VoLgfDgS6FTTkZmEiS1LpN8dk58t/6G5z0VMUtUkrpOY5D/uE7cQ7v8LqUqjA6D5NG1Osylqyqw2bf0CST6tJ1hfPk/eTu/WOcyX4Fjhyb4+DMTVH4wacp3P9RbeYskkNJGJua8bqMJfN5XYCbDo5OMZqBkwHD62KqTSGL/ZN/I58cxfr138Fccw5GKOZ1VVIu8lnsvp+Qf+we7MfuWTwTTZbNAQ6lYHRSYVNWUvNZbn19N691BrCUNsWXz2Dv+AZ2/88xV5yGuf58jHXnYbZvxAhGvK5OSszJprEHduEceBT7uYdwDj2GM3FII5oims/DvvB6Uuk9XpeyZFUdNgDf2r/Aje0obNw0fhB7/BD2k/8Bpg/8QYy6VqjvxAg3QCiOYfme/72Q19XKcmXT4NiLHWYLM5CahJkhnNQY5HOL4VLIo82bxTc2Dz8bqMxN1VUfNg8fTjF9uklrSF0w7nIWz0wr5CA3j5OehuHn9HYjUkRHJuHJA2Nel3FCqrpBACCZXuCHI5bXZYiILNvDC01Mpyuz66nqwwbgroM+shrYiEgFy9rwlX2Ve4hpTYTNrnSCxypz5CkiAsBPR+HZ4ZTXZZywmgibkfFJvn8YjW5EpCLlbLj7uco7fPNoNRE2C5kM353vpG9a/TEiUlkc4PExeGih3etSlqUmwgbg8f0jfH+iTheqiUhFmcvDN8Ya2T9U2WsBNRM2uXyef+2D8cps5BCRGuQAz07BgwMmuVxlb46tmbABeHYoyVf7w5pKE5GKkCvAV8fb6Ruc9LqUZav6TZ1Hs22bnvow5zfD1iavqxEReWWPjpt89tGxirtO4FhqamQDMDyX59NDPToNWkTK2vgC/F1/NwvZyp4+e0HNhU0ul+PBPdN85wgUNJ8mImUoZ8Nd++DHfeNel1I0NTWN9oLRqVnWdTZxckuKUxOVuyNXRKpPwYHvjUe5/VCEZGrU63KKpuZGNi/YOzjBX+4MMJXxuhIRkV86koKP74lwYLB6ggZqOGwAvnMww+3PQLo6pkRFpMItFODvngnyUN+E16UUXU1Oo71gIZOlpaGOlnied6ycJ1zT/zdExEtzOfjE3ih37berovvspWr+7XVsapbOlgYiAYvrV6R0fbSIlFw6D7/i8AcAAA0/SURBVP862MKndmdJzU17XY4raj5sAAbHpuhpa6bdTHFhNwocESmpe4bqufVJm7HJ6gwaqPE1m6P1j4zz+8928M3+ALmCDuwUEXc5QLYAXzoU4v8+bjI4Wj1tzseikc1R9hwapKu1kbF8gOt7UlrDERHXzGTg8wPN3PrzHOOT1dcQ8FJ6O32JgdFJmuvrSM1Z3LC+QCLgdUUiUm1mc/CXz9TxlX1ZJqZnvC6nJBQ2xzA+PUt9PEp/coHfO9WhM+poHUdElsV5/sfhGfjoToOvHVxgIVM7G/0Mx3G0PPEKNq9s4682TfKaljwRRbOInKDZHPznSIy/ecRm99Sc1+WUnMLmOHQ2xLmxMcU122FVHEwNc0TkONkO7JmBL+6z+Nd9ISZnU16X5AmFzXGKhkOc2hHhg6umuHyV2qNF5NXN5+He/fAvQ+3sODROJpvzuiTPKGyWKBQKcukKP7+7Yo6tnRBTA4GIHMUBZrPw5BT8zXON/HD/LLlc7YbMCxQ2J6i7Ps7VaxyuXznHhnqwNNQRqXm2A4+Owj0jzdz73Bwj02mvSyobCptlsCyTM9d3c3Win7euhfqQ1xWJiFfG5uHLe+HOiW52Hxokn6++882WQ2FTBJFwmFM6YvyfkyY4s9kh5lMTgUgtcFjcnPlfI37+8UALT/dPML+ga4CPRWFTRLGwn6s2NXJN6yjntEHQ8roiEXGDw+IpzY+MwZfHu7j78SHyVXhSczEpbIrMsixWdzZzZUeSG9fM0x31uiIRKbbnZuAz/S08cNjh0PAEtm17XVLZU9i4JBQMcnJvG+/vGuay7hwNQbVLi1Qy24bxBfj6kSCfedyhL2eTreFW5qVS2LjMNE0uWN/Eh1eNc2Yz1Cl0RCrOZAZ+MBLktr4oPzs0RaGgkcxSKWxKpLM5wRs31HFd8xHOaFHgiFSCrA2PjMKXZ9byzScHmZytvWNmikVhU0KBgJ/u9lZ+u2uEd6wpkAiCYSh4RMqJAzg2zOTgb5+yuO9IiMHpjDZmLpPCxgOmabKpNcrNp8AlLSnaI15XJCKwGDT9KfjWZBOfeCJN37g2ZRaLwsZDkVCQN53Wy3V1ezm3DSJ+rysSqV2pLPz3sMk/j6/iR88eIT2v/TLFpLDxmGVZdDdFeX1bko+cDD1xrysSqS22A7un4JN74NujCQbGpr0uqSopbMqEaZq0xQN85PQYb2yeoCsKftPrqkSqV9aGgTn44nArtz8+w2w6q/0yLlLYlJlgIMDZa9u4rmeGN7cldS21iAtG5uGb0x18eS88tn+UfD7vdUlVT3dPlplMNgtAc0MdD3XCe9bA9mbwaZQjsmw5G34yArftDvHj8RRTM7Nel1QzNLIpY5Zl0RQPc8VaP7esnaYjAgGFjsiSZQqwJxXg9udCPHDYYWImpSmzEtPIpowVjjrYb3NPI+/ZEuey6GG6YzpVWuR45G04kIQHdsInJkIMjM94XVLN0simgsRjUc5qtXjvqiSX9mqUI/JKFgrwlb1w10gzjx6eJZ3JeF1STVPYVKCWxnouasvwwU02G2JZwhqfigBgAwt52JmMcOtOh/8ZsZiZTXpdlqCwqWgt9XHe257l6s1Z1tSpVVpqW86GXZNw55Eod+81mJxRyJQThU2F81kWZ69p4armEa5aA41BrysSKS0HGJyDr+2HL4+18fP9w16XJMegsKkS9XVxtjbDn5+aYXtjDsvUAZ9S3RxnsQHgW4N+/mFfgp1DaZJzOpW5XClsqkw0Eua31vl5V2+S0xohqPUcqULJLDw+Dp87lOAbu5Mv6tyU8qSwqVLrOpt4Z880V/TarIyrVVqqg+3A3hn43IE4/9FvcmhU55hVCoVNFYuEQ5zW28h72oe4crVapaWyzWThnv1w5/gKdvQNkNMRMxVFYVMDfD4fv74mwR+sm2Rrg66mlsrhANML8NMxg48+18KTh8c1ZVahFDY1pL0hypXrw1zTPqGrqaXsZW348TDcM9HJfbsmmEnrfplKprCpMT6fxUkrO3l78xHethaaQ15XJPKrhtPwqb1h7htOcHBoTKcyVwGFTY0KhYJs7mnmwyvHuKg9p6k18ZwDDM/BgyMRbn80z94Fm2wu53VZUiQKmxrn91lcc1oHb20a4Ow2iKpVWjwwk4GfjMI/DXTyvWeHyWtdpuoobATLsuhtb+L1PTa/0zvBal1NLSViAzvG4fOjK/h2X5Ijo5NelyQuUdjILwQCftb6Dd53hsWbuxZoCWl/jhSfAxRsGJ2HrxyOcPuuAmPzBXKaMqtqChv5FZZlcs7qJm5ePcv5rVkadN6aFNHwHDwwkeCzuw12DcyqlblGKGzkZTXXx3nzqe1cl+jjjBadKi3Ls1CAHw3Bv81u5Fs/P0gqPe91SVJCCht5RX6/n854gGt6s3xwU576IFiGOtfk+DiAbcPhOYNbn7J4YDjM8PScRjM1SGEjx219W4ybt4a4tH6C7hgYShx5BXkbDqXgP6Y7uPWnU4zOaiRTyxQ2siTRcIjXblrBexv3cn6nWqXl2JI5uHcowV1DDTzy3CALupK55ils5IT0tDTwuoZpbt4C6xOaVpNFBQd+Pg6feBK+O13HxPSM1yVJmVDYyAkzTZO6cIAPnVnPtS0jdMfURFCrMgU4kDS47VALX31mltk5TZnJiylsZNn8fj9ntEd5a8sMbzlZ563VEtuB/hT8+y64c7aBnUe0KVOOTWEjRdNYF+c1zTk+eHKGs9sWu9akeuVteKAfbt9Xx46RHLNzaa9LkjKmsJGiMk2TxroYb1pl8f61aTbEs7q0rcrM5WFnKsYnnzH4r8M2s6mU1yVJBVAvkRSVbdu/+O+VbQ387rosl3VCbwwshU5Fy9uwZxruPhDkC4dNhie0+C/HTyMbcVU0HOSsnjre2jrOtevVQFCpJjPwpb1w70Q7TxwY05XMsmQKGymJRF2cC9oL3LLF5NToHCGf2qXLne1AOg+Pper488cNdo1lSWldRk6QwkZKqqUhwbXrbK7vSrGpAXwa6ZSlTAEeHoavDNZz374sydSc1yVJhVPYiCdOX9vJ1U1DXLUG2iMa5ZQLBzg4C1/cb3L3UCN9A2NelyRVQmEjnqmLxdjSEeb31ie5oC1DwFToeMUBUjmD+/oDfO5wI08fmWB+QUfMSPEobMRzgUCAK0+KcUPPFKc167y1UnJYvJL50RH4h8MtfG/3qNclSZVS2EjZWN3eyOUrctywMsWaOo1ySuGnI/Cl4Rbu75tnaCrpdTlSxRQ2UlYCfj+nre3iXS2HuHIVxP1eV1SdJhfgjr3whdEu+vqHyauVWVymsJGyZJom21uj/NnWOba3OCSCGukslwNMzMODQ0E+vsNk98zCizbhirhJYSNlrSke4YrNDVzTOMhZreC3vK6oMqVy8NAw3DPdy71PHCGb00hGSkthI2XP5/OxpruNq9smuWndAi06VXpJDqXg7/c3851+gyOjE7qSWTyhsJGKEQj42dBkcfMmi0ta07Rpf87LyjtwZA6+ORzn07syHJkpaF1GPKWwkYoT8Pu4ZFMnN7X3c1Yb1KmJ4EUmF+A7I0E+e6iBR/frHDMpDwobqVi97c1cujbKja2H2dzodTXey9nwyCj869R6vv30EOPTs16XJPILChupaH6/n7aoxYe2+PitrjlagmBZtTO95rAYMiPz8A+7o9y732ZiLqspMyk7ChupCj6fj9NW1HPjujyXtszURBOBAxxIwgPTbXxuZ5o9QxrJSPlS2EhVScSiXHbaSt4Rf4ZzWiFYpa3S6Tx8dwD+aWI9j+w+zFx63uuSRF6RwkaqjmVZdDbEeFPHPLdsztMRcbCqZF4tY8OeGZN/3GnyvckowxPTXpckclwUNlLVehpjfOTsBK+LDbKigq+mzhZgXxLumerh9odHmE3rRGapLAobqXqRcIhf6wlyXdcsl6+EcIVNrY3Pw90H4e7BBnYcSZLL5bwuSWTJFDZSM1ob67mkaYYPboZNjWCW+dRawYGfDMPfPR3kkQkfM8mU1yWJnDCFjdSceCTEVZvrublnhN44RHzl0yrtAMkc/HwmxKf6Iny7L6VLzKQqKGykZm3oauJN66P8Rrifc9og5OH0mgPMZBdHMt/NreXeHcOMTut+GakeChupaX6/jxXtLZwTGefKlXnObS/98TfjC/C9AbjrSJxdswGGxqd0WKZUHYWNCIvt0sFggM5EiDet8nFJj8EqxqgLQMwPviJ1sWXtxeP+ZzLwrNPBN/bO89+DMJ6cZ35+oTgPESlDChuRYwgGAqxvi7NtZTNbW3x0zz5DWwQ6wtAQWlznebW9OwVnMVhG0zCaWfy5L7GNnYOz7Dg4zoGxpEYwUjMUNiKvwufz0RiP0twQp6W+joZ4hPjsAZryk8QDi63UL3S25W1YsGFqHqZjPSRDLYxPJ5mYSTE+nWQqOafbMaUmKWxETpDf78cyTQzDwDAW08ZxHBzHIV/Q/TEiR1PYiIiI6yr08A4REakkChsREXGdwkZERFynsBEREdcpbERExHX/HwuDFGIeOWo9AAAAAElFTkSuQmCC;" parent="1" vertex="1">
          <mxGeometry x="460" y="110" width="114.48" height="100" as="geometry" />
        </mxCell>
        <mxCell id="kGaND2a8ccCfyIjc9hiN-25" value="MQTT Broker" style="text;html=1;strokeColor=none;fillColor=none;align=center;verticalAlign=middle;whiteSpace=wrap;rounded=0;" parent="1" vertex="1">
          <mxGeometry x="487.24" y="70" width="60" height="30" as="geometry" />
        </mxCell>
        <mxCell id="kGaND2a8ccCfyIjc9hiN-26" value="" style="shape=image;verticalLabelPosition=bottom;labelBackgroundColor=default;verticalAlign=top;aspect=fixed;imageAspect=0;image=data:image/png,iVBORw0KGgoAAAANSUhEUgAAAOUAAADlCAYAAACsyTAWAAAgAElEQVR4nOy9eZBlV33n+Tnn3OVtuVdWqUpCIAlhWyAwQoKwWZqAaZvGIAZjpnGMsdoTI4wc42Fk+MPt7nB0dMf80zH/dE+0zdBMu8Oe7raNhT09wNDGeBrbYBksCVls2tBSpZKqsnLPt9zlnN/8cZe87+XLWpSZVS+r7rfiVb737n333Xfv+Z7f7/xWJSJCjQuiuExKqT3tLyJUL7nWetfPi8iu2/cLF3v7L/S7i/NVSg3tW7w37jt3+327ndPFXvvDDnWtk7JKkuKmX8rNd86Vnxn3uSRJUEqhtR67j7V27HcW53TQpBz9vt1+x7j9x+13sZPOpZ5XcW7XAq55UsL5B1KxbRz5RARjTPm8+pkqLnagv9xz3wuqv2U3STf6KPapPnZDMSkV31X9PqC8fhfz+2pSXmPYbdBd6DOjg2z078UMuuqjwKWcw16wV0mWpml5nqOTGWSawPkIXEx2MEy60es6uv1qRk1KdkrK6sw+SphCDS1wIfU1TdMdhNdaY4yZiEEWRVF5TgWpCs3AOTe0rUoUay0iQhAEO445boKDYVJVSTu67WKeX83wrvQJXGkU6tXFqGPjtmmth1TcUckXhiEwPJCL50opoijaQfyqBE6S5AB/PQRBUE4SheGlur4sJp0qKatSsZCUo9vPR6BR0o7bXhznWsQ1T8qq6jW6virWjMX7hfSoErDf75fbqhKmGMzF9t2Ie6GB7Hnnv0V7HbhRFJ33uMX3VyVm1Wjled6Q9DfG4Hleed3GTXbj1pYFasWtVl/HIk1TrLVYa0mSpPxbPNI0JU3TIdW1GKzGmB2D1hiD7/v4vo/neUNqYnWgj6rGsK3e7Ya9rgkLFX3cb1JKDV2H4loUai1AHMe7rolhWxJ7njd0DQrSFppEFbVL5JCSctSQMG5AF9vHrYcK4mmtSdOUOI6JoqhcA0I2CHq9Xjn7+75PEAR4nldKiHa7fd7zPOwD6VL8ssU1LcgtIkRRRJIkxHFMkiSICJ7nldcxCILy/hVkLSa26jp39Luq31ld1zrnsNaW92e3c53k+3KoSFl1TexGwnHuCMjUtGKAFGs7gF6vV+5TlXbFTD47OztWxd3t+642XAopx62Ni7VqQZaqFuKcY319fej6jtM0iskwCIIhF5RzDmMMzjmiKEJrPSR5rbU7rN+HYb068aQcNXo458oZFbI1W3WWhWy2LGbr5eXloUFQvdHGGBqNRjkYCtWyOjvvRvxicrgUP9thxKW4hS4Fxf3wfb+UeFWJWty/brdbEjYIAhqNBs1mk2azed5rX9yfcb7Xi/ldVxKHipRxHKOUwvd9ILvwBYGKGzoYDEqJmKZpKfWK2TYMwx1ru4v57nHbYLJv7iRg1A95oes1aggr1rODwYDBYDBk7S3ua7PZpN1ul/ezOEb1e6vr+OK9ScXEk7JAVV0pMBgMCIKAKIrodrv0+/2SiEEQ4Ps+09PT5Q3c7Ziwe4jdJN+8ScVuDv+CLNVlQJqmO/atfmY0ICGKIvr9PoPBoHRnFcuRZrPJzMwMzWYTGLY3HCYcClIWs2b14hYz5/Lycql6hmFIo9Gg0WiU0rRAsaYZtRIW++1GymJmHretWDPVuHSMu6cFqq6nNE13LE+q2NzcLImaJAnGGNrtNtPT0wRBMKRNjX4/TOakeyhIWTXupGla3ohilgyCgFarVa4PgXIdWaxZqrN0daYeVa9GL8dhm2UvNy60phwXXFBFsSQZjSoa/Y7CQFTcw8IgBNk9cs6xsbHB2toazjk6nQ4zMzM79r3Y876SOBSkrLo1ut0u586dI01Tms0mR44cGdp3NCxsN+f0bmFzo6j65MZJyj3f2Orpqd03jdk8vNPQRlduGok/utSzuySMXttRTeJipVNVmxm3Dq1qPdWQRecc/X6fXq9XLmVOnDgx5GY5DJhIUo6uSQoVZG1tjTNnzhCGIUeOHKHRaOxZfbyis6Wwk5Rqe1NGrW1Jrkd2RfT2MZTgik/pnBQokEowgGhAowQo/LaMX/9dToySebdJcDcUltvCluCcY2tri263i9Yaay0nTpwo94/jeGzM7qRg4qeOYn0xGAzo9/s0Gg3m5+dptVoTq35cMmSX57u8pUY3CiAqI9vIJ53KHgCiHCXJJ24qfnkotJXCog6Z9tNqtZidnS2lZ7fbLeOIi/2qRqZJwqEgJcD6+jqDwYBOp1NaVCdQyL88nHdu0Sg0Gl0+zyTkhW+d3uXAotwFvvPyYlxM7MVOuIUWNeri8jyPZrNZSs7V1dUyzrcaTD+JmPiAdM/zsNayublJGIZ0Oh1g27x+6KVlcfpj1oajtFPV/YrnFRVYFZ8oJislaFE7jns1YdRoV0zihTScmZkprbNVo94kT+gTLykhm9F6vR6dTqcMo4rj+CpyR+SSq1QvXbm8rD5KQo6uRStQovO1Y0bS4nX1/UlEdXK9lIm22LcatQXbk7bneUxNTQ1tK/yXk7qunHhJCZlPMo7jMvi7mnx7qKEAXG6ocWN3EZHhteIQGceYaxXZ+hLNmEXmROPlaj1Va+1oFg5AGIZlFky1PMmkjp+JJ6VzrgwiD4KgVFnHpfwcPuSScWgsFipo9keJGiGiDP05L4Yk48gHiklADr9eq5QqtaZxqW++7w9J0iJgZFKXP5M5VVQwWi6iOtMddFb+5cN5GDbkMqm8UC57rRnRca9NVI1EhR9zN7tDISHjOL7s53kxmChSjkuULaJ2igtbzcT3fX9H8PHhQ+GRrPwGkezhwKUWnGQEVAq0AkkRlyAuAu3Y2FrP7qQBh82JqnDW5vba4YoKxXO4+AJdhwmjVRCK5c7W1lZpjQXKbZM2fiZefb0mIbpUK7VvwAouTRGdB3MbUCpT12I7YGq2TWIHeMYjTmO8/LZ6JkAKi6O6dKd8jSuDiZKU43A1zuTDUGzroOM3i1ZYEaxzWJUiypGSEBOx1l0lIWHgBmwlW6QqBS0kNgblsJLisLvmFdaYPEw8Kcdh0tSNvaMgShEUsO1btKnDYdGeQnsKUUKKJSahZ/us9tY4ee55xHcMbB+CfJ1pFFEywCFX4fW6ujHxpNxtdr/6BtpIlE7+kx2CMhqMwuqMkCmZ9HPGcurcSf7m0QcxaLyGh1MWh8N4mlRsdoRaOB4qTDwpR1El4+Enpt5+jHHsC6CNQVA4hMQlJCQ5MS2Rizn10kmefOYJVtIVDJpEEnrSRRD8wEN0rbIeNhwaUl5TA0u2bbGFfzvFZmtDwOJY7a1y8sVTrPc26Kc9vv7Nv6JPH5SQSkZbTZHCJmUa2+GfyK5+TDwpL1QjZxLwss5EoAwewI2N6BEFloyQFgGtUMCALmfWTvPkqe/jggjThq8/9BesDpbRaHwd5J8DhUEpH9DgVPYoXC41JhITRcpiJi/WkYV/qXAGw3Bo1CRIT8Hl/+zQoyCbiEXEwriHs2S0S/K/bthdmfM0zm2tFsuynOGx5x7mkae+yTPnvk/nuE8cbvLMmSf4rw9+hZQYi6MfJ2h8RAwuUbgky6dUaLAObArO4mwyVH7jasRoXG01zK54Pkm/faJIedhQvY2VTMULf2jo/juwFpI0+1u4FRV5MEDhNNFsss6Tzz3OYz94lDOrpwlahoHb4vS557n5R17JX37r6zx28jEiYlpBk43+ZhZvYMCY/EBCdmCty0TnGpOFmpT7hMJkc0GMhsM5g0sVqd128lvnSGxWR2BzsIbCsZ6u8PDfPcyjj32bftSj2W6SOMvaxhbHr38F61ubgONrf/lfef6lZ3E4VKBIsFiVqcJSfL9WIB5Yuai8zBqXF9f8HRmt7D2u0vdu2Luc0eA0Wvl4fgjGBw2JRES2z8B18RpwpnuKb3/nIb73+N+x2dugPd2m0Wrm5TQ9Go0mRvsoo1nfWudP/+t/4Uz3FIHRJPRwKiJVLisXovIzdxANzt+npMaVwTVPyv3Ay7qIqvikByYAlYXGOWVRHujQobUlost3H/82333yUfwGHDk6Ry/qsrK+QthsYLyAKE4ZxBELi/O8cPYFuvEmn/3dT3OmfwpLhJCCSoklIrFJKS2zUL16CEwa6jsyCchFbpImJC5GaQckbLHGN/72/+PZ00+Al9CY9iAQEhshgJ+nryWJpTPT4dSZF3j1j93MU889wdmNF/l//ssDnN16gS7rWBIcKQMb4fK8S7/h14EFE4hrPiD9girqBYwh5dYL1IMc9y0Khcuj4pxA6hKUb7EknNl6gWdO/5Bvf+9bNGebhFMe3XgTF1vCTgPP80iShChJWVg8wrPPPsv8/ALLG0u0Z32MUnznyUdpT7d5/Wtez4/ccBuB10IsRDal6XmZneeirFM1LidqSXkFIWqbE8pkthdBGNDjuZee5W8f+wbhjCHVAzajVaK0hzOCMYpUsvZ9vhdy9sw5pqamSGzMqRefZ/7YPFbHqJbjaw/+OT949nts2g3AgQ9WYiIHSb2knEgcClJWW5oVfszzNVMdJ/1GDTiFb66ahTLucSGjz27bRn2u47NdMjFpdeal7MabRPT54ekn+cbf/gXOT8F3iJ+gPdChxnjkMa3b+aTzs3NYcaQuoTPb4dz6EomJsV7K9bcc5wtf/QJ/+bd/ydn4DFan+IFPYgdoL5PO1X4qF2vkqnFwuObV1ysJUZC4zIK6McgMN6fWnuJvvv0gElhSlZC4CIygtAYcNrUoUrT2MDpAFx2olMYpwaIQX3BOSHE8d/Z5Ttx0HV/5i/+CVoa3vvEdKF+hjIcQ7JgsxlWVr3F5cSgk5SRjXNW5cavQrL6ADD0sGfFSIlRD2HSrfOeJ7/D8mZPgA6EiJsYqAZN5/q1NSNIIrEOJRQuYop6PEtCCVQ6rHIlOsZ7jXG8VmvDHX/o8L66cZqW/hGcUMQNE13mWk4aalJcZ1XIcWfpVQkQXD3jkew/xvae+Q2s2ZCADrHaowIAHYjL2lb0zdFblTqzbfhQdk8WRFglentCYbrG8tcKJm67n//y/PosEji3WiRmUwepV1CS9sqhJuR+4CG1PGF7TWgSLQ1RMQpenzz3OY48/ykZ/DR1qBjZiK+qiAg+nIBWHkyy30tcmJ2SaSUscRmV1fESrLJBdQ4qgfI/13gZzi/MsbSzhdQy//dl/Q4BmkG4ih6wM5bWAmpR7xcsY09vktBgUG8kqf/PIXzOIt5ia77C6tQa+ZpAmOJFM8qUp1hYGGIdygkstRumhTmNaazAaUQpnBJcnR2/Em/gtj9hFvLh8ii/89X+m5bVwkg5VDq9x5VGTcr9wnqrlVZU1k5BSqq8JA37wxHc4efoZvKbBaxoSSfPyH4Y0TRFXRN9k1e3SNN1u0Se2rDw5ZDUu4l21wmlFKg58TewGHDl+hC98+f/mqbPfJ81JWRNzclCTcs+ohKJX2thVkRVCL951iLKITkhVzGq6xEPf/SapiUlUxNrmCs1WmLV2Uxprs4LMvvYwyqCcQixopbI+K5JmxbFchVzpdnZYGif4xhA2fM6tnGHxxCKnl0/hAssffuFzRLpPZAYkOksQK3/A0CSzbZ4qcZ5JqMbecGhIWe3GXLyeDGQiSUThREFpJMmTikWDmKxlpE1R2qF0itMRmoQ//esvEfl90iAiNTE6NAziARpD6DUJJEBbH4kNKvHwxMcnQDmDtQ6rhcRYnIFCrVVOCJ2hKT6hM6jUYZSmPd3m9PJpdFsjU5qnV37IH3/98/T0FhERlpQ4jbbz0ASQLD/U5qnWWWU8hvepsa84NKScaJTB5dsCRBUJGamAc6A0nmdQWCwxCsejzz/E8tY5ttKsNGRWHjIrEmxMZszJHgotKmthMOJ0cSKIcohyOJXHmkvW6EdL3iDWSV7LWWUbfQUhqJbiu899l795+kEiBlhsVn5kR/id5L+rIisvOoG0xqWiJuWBoFLeQ3JS5rCSAo4eXR597NtsbK6R2hhtAJVVKtBeRp7UJXkVg5zqaluvlEJM5d+zW1RRNbO+2lLe93183+f06dM89MjfshavIkCa964UGWbcDgfJNd4m4SBRk3JfUel/CFlzVj+zhqIciY1JbIzC8OQPn+TMubOkLkF7CuN7OMmImJUQkbJXSiYFM5eIU9kKLzv+sLA6X1uC0e2Fxdb3fc6ePcv3n/g+KTGJS0glIZW0QjpV/l8PmINHfY0vB3QmITMXhZCS8PDfPYRVFjyN8Q3KgMWSuASnHKIl+6uy2B+nbEZMsr9WZys92CklR/uxFO9VY36LR9gMGCQDHn70IdaSNcRYUpWiPAfYvCU77BCNtaQ8MNSkPEAIIJJmamnRy0PBC5sn+eHpZ4iIwUAijtgmOLGo/I5oDcao3IGSH0+7kqgOyVwe5zF8jQaWjxIzdY7YpkQ24qnnnuIHT/+AlBRRKc64bWsshY15TOPZmpj7jpqUBwwn2RowKxLp6NPj4cceRgLopz10oEklJbExolyWwqUEKxZRglMViSmZ5LK5tHRqZ/XzUZKOqqyjIXSpSxANTgt//dA32EjWSUiI3CA7/nYF2qFOfIUftMb+oyblvsGN/AWUy6UdpCqhz4CN3gbffeI7TC9M0U97KC/LyrAiSFFaU9Ky83B2nDwCKJeMGRl2mj8vRloWUT9KKZQWgsDDDz1m5js89oNHWesu06NLZAdQsbZmhBzuc1JLyYNBTcr9gAKVD3TJ/6EEpTQC9NM+BoMgfO0bXyPRKSvdZZqzLdY31/ECQxiGQ5E1CodnFMoJklqsTXHObsfOiiOtvAZ2pGBVMaq6lq9x9KItnHGYhuZPv/YVYiLEy4LarbPgVFbUGbUtLXNSXs31Yq8UalLuBTLyd2jTtuvCYYmJ2LLrrPXXcL5jIAN0qPKC5VdmUAvQiwYErYCtaJPmbIPHnvw7vvf0d/MJxiHabe88cpqOWoU9CNSkPDBkEjMla/aaEPPCmdMsbyzjjCNREXgq90PqMRn/287/IoBgKMqtcI3sldBaUJ7GqhTT0CxvnOWR7zyct0eIRn9SSUxXRw8cGGpS7gcU2705KiRxZE1btc7U2MefeZyN/jqxRJimISYeX2c2D5XD7SRdqaoKZSHlcSU8LoqsyhEEHt3+BiZUbEWbzByZ5qnnnuJsvMQgHeTkY5dwupqYB4GalPuI0uJJ1WqZcTaWiKefeQqHZWAH+G2/0tQ1i53VksXLZhJSlY9s7Oe9QESX+4+tcDAmgOB8cMoR25hEUnpxH7/ls7q1zEPf/ha+548cvPrU1WGvB4SalPuBIkJ7pHOWIKXx58UXX2RlbRnta+I0QntZRbpRSVlIyMKgomX7MSQl2b1o16XAOUer0yKxCY1OyFbUxRnLY9/9O7x8eCjRdeD5ZURNyr2iEFe7SCdBEZHwgye+D1pjfI9UHP0owvP9LLfSZR/PPlr4GnQpOUvXvWikzDzRQ+rrKC6WrEpDEARYawnCMAv5CzxW1lc4tXyS4YUsQ+SsFdeDQU3KvUAB2O2InVy9xOosnQsydVX6PPnCU/hTHuJlFQeiXkTTb6DscPW4wqIpeStJW7SVZJsEVYtnmcxcSNvK6Y0jZvU4jqyZULffI04jorjP1FQHKyniCY9+79tZWJ9Ot12UpZtS54OnHkL7jfqK7gGCI1WORNkscifVaOtjxEdjcAgbrLOSLrEUv8SGW6Ofdjly5Ah+6pNspoR+mHVfdlmvZrQiRYhdkvWlVFmgndMOpx1WZT7KIszOoXFoRBmU9lDKoJRBK5MTJ/snSuNQlYfOyK0VJvDxwoA4SegO+niBoZ90eezxR4kZ0FddrI7AQGotNrHZMS3UJX72HzUp9wiXpwA7MuNLIYpEVJkc/MLyC0QqIlYRzgjWWrToLFm5cqxCOrpCUubEK6XliGWneD0u5G1czGv1uStNNWqoKHWSpliyFu2rW2s8f+5ZNEIsEaJStM6brcLOONga+4L6qu4RRQRPSYLSCGOzHpEofvjDH2avXZZLmaaZgccYc94Mj3GvR9+/0NqxGr0z7uFcdj5F6cqiGr3neXS7Xb7//e+XxwGy2kGmiBqqxeRBoCblHqHyfxpVZoFsIyuOdfLkybz1nAKtSGw6dIzdsjlGcSEiXqi1wg53SS5qrbVDbRp83xA0QqxYnvzhk5laDbhK4rNzrmwlUWN/UZNyH6BQeZA3kLd8LPIQ+7bPyvpyHjmTDeKCBE52knMcdvM9jssEGScNx+1fnrtSpbvFOZeVnCQLjkdrzpw9y8pgNYtKctn5DmkGNfYdNSn3AQazLSVzSelUlrS8ur5KnEZZ/RtPZalSymV5lDY3EFVwMRKzut+lkGNc1XONwhgPbDZZCBDHMf2oD0boRj2eO/k8KF2GRJTlLWscCGpS7hEavWNNmRlpMhPQuZUlRAtpmqCUYG2KUpTrt3HYT/V1XAOf6nNrBZNnViulCIKA1DmiJMZrhERpwlM/fDJzUWoZCh2scTCor+weUTX0FIFnzqVZTiQpqxurKJMnEyshkQQxkiUzY7dzJS8g8V6OZBxFVboVz9M4KSveGWNoNBpoT+OUo9EKSSXlhZdeRNiWjnXh5oPFoSClMQbnXJmgKyJ4XtbFr1qDpsA41Wq0R2RZ4v8CGN9Xchups2jMNrEMWHFIHl737PPP0Jpqg4Fu1C3PO45j9Ij1dTfLa7WmTnXbaL2d0ZzJcduqnxcRgqCRF9tTpKljs9cFwA89elGP5nSL50+fJCKrrCcIYeCTJBFUiFqvMfcPh4KUk4zqoCyJqwWlMttrt9slSgZlqY+sKnNW8mOcxLmUwb1XIqhKXO3QcUtfaVGoy9KPe7lvs8wbqXFAqEm5R2h2ZmtorTEoUlLWNteJoj7ozJopSuVVxncn1PkyPfZdIjmhLCStM5dNURMoVYJVWfeu9c21fJVcS8SDxjVPygu1V7+Yz1efi2SV6CSPihkk/SyR2Sh0vo4cLaExzn1RxcX6MS8dWaB7kUhdHr+Ip1WSPxzLa6vZtrysJbru+HxQqNur7xHbsaUOpcFZKYO++1Evd39k69eiw5UCtDYYZYbV3hFk24ZfX2qxqu0czzEEylPFnFIobTBYbP6FVhxKBN9oMIrl1WVAb9e2q62vB4b6yu4RhUtknMGjO+hnQQUma0NQOOdhvDGq+PzFqq/7JalG15SulJSuDIJYXlulKAsGglb10Dko1Fd2H1CVdi6v7+pI6fe7Q1XMR9eShaHnUtXR/VNfqzmcufqtVWXbtqtnfX196JxHn9fYP9Sk3AOqsk5XO2FlK0eiJMY6RyopqeRGEqVAqawviBsuqXGxa8qhbepiiDH+NlclpM4zPjJrrKtUN7CI2EwVh9LUU6yNa+w/Dv2a8oqHe0kREVOJmMEQk9KPBjiTl5HUCpUX0BKtcTYrHGBUQcy8U3OeWZK1vspuUPYbM8OKywPbDZlRyTqHKINoybo2lz0ji3MaLiEyXC9AozD5Lg5lQReGHHEYBCcpxtdsdjdISGnrNlv9LWaaUxith4LZi99fY2+oJeUeUQ7CXJKVa0sqGf5Kl/mQ2+u1Ytulfd94ibldS6BI5Njer9JpetwnR/I0M0tsLilzKWzLpguZCUubYgqqY2APAjUp9wtFZXNlct9lToZqIrDovKHrcPGrS8XBuUh2QikFzqGFPJl7Z8rWpbiQalwYh159vfJwgMaKYNgmm0Lha5N3Vs7KRmY2lOF5UGfJ/xXXReHvHGn4mu8/Ou4zN8n4ULeMrOWrkb8ZyTRZuwWHVGqA5QERTtAonM1cIHkREjxdlJ7UaFQdTrDPqCXlHpFHp+5430PTCJojVc6L0LZhlXI3t8eFJOBumSSXKjW3JwQ39N3V4ALfePkqVTAqk5SXGmhR4+JQk3KfoLJg19yiqvDwaTabkFe4U1IpDVl8RshKRl4Cdkte3ns43vbEUkwculC3lSEMm2g8SulY5FTWhNx31OrrPqGIcBFRZDXmDK1GG1VUPmd7BlT5YK+iJNGYAPdCfR03+PeivuaOjXxCKaKHNCI278SQVW/XGBpBiIepqLiyQ5Ued241YS8dtaTcL1TJlBdQDr0wU/lyqTMsKStlCiq4mGoDB49c5XaZlDdofD/E4FO4Wpxj5wK3xr6gJuWekbkKxDkQ8L3McGJJmGnMYPBwiUWJJolSwiAgHkQkUVxKy4sh4YVyJeHCwfVjHyYLCHBkpUmUFLma2XfF/QEaxXWLx0hJMRgcLqvunqbIefpT1lLy5aEm5R5Q9UWWbwh5k1WNwRB4IWLB1z5KFEmUopQhCBoH6srYC0xemU+jCbyANHW0W1MoFJLXiQUwuq5mdxCoSblnZC51EdlmqRS1yQ3HjhwD0RhlCExAEqcYNIHxkEqJnnHGm9H3z1e75+USXETKUL3iGFp7eCqrtu6ZABtbFubn8fCygppFPxNVk/IgUJNyX1AMaiDPrsqakRtuuulmcAqXCoEXZhITgzg1RLYCu2WIXGx2yLgsk90ehdo6ZFAqVWGTtYS32ftzswtZ1b5LzR2rccmoSbnfKM2TmevgxhteiUsc3W4fAM/z0EqRpinG+Lsf5wK4GOl4MZJTRPJKA1mcq3Ou9KeKCHEc0252mG5PY/LmeKZO2zpQ1Fd3H1DE26g8/luX78PC7AJaa2yckEZxZnMtSWl2SLTymJdJfa0eY7TIllgHznHs2DFCE5a/VWudqQW7lMissTfUpNwjitAzoGgrCSp3gwDtRovZmRnazQ5JYkmTrCrfaGW66vPdiHcxuFSCjuZ3llXznJR9RV75ihsxees767bV3Tp162BQk3KPkDxSp8xrLNyPKiNrgwZHZheZm56FVCGp4OEhItiibcEu3asy1TJ/XmaWOETsRWWXnG89WRJXbWeYWEmz3pR50IByioZpcN3CdbmRR28bp7RkuSP1EnPfUZNyj9AqQCmTtaxTNi+hYUGlWTA3wrve+i56KzHG+YQmII5jGk0Pa+My6kaE0jeYGWHyNnhiCy9inqPhyirl2WOnUehiUe0i7lIAACAASURBVKwdA8/QT/q0plooAyrIJg0Pn3TL8ZM//pM0CXGRpeU3ETT9dIAOvO2SmRPo2jmsqEm5J+jyb1EntVrXJtNmNUfnjiKxcGRmgUF3gNaaXtTPGsGW6ZjbWSKjqNYn2M7LlJ2ffRnE0FoRxwN83xBFEcozWaFoZUijlOuPncA4gxaDEX87bE+rshtXjf1FTco9Ikv7HR6cSrKMfoOhQZMZf55ji9eVKU9xHGeFjSXvxqyk8iB7n+xvobdK7riv6Mf7YvTRWhNFEUHQIEksvgqxkUMkq5j+Yz96W7YGVg7j60yqI3jaG2qNV2P/UJNyTyiKSW5D5VkhxnkYPJo0MGjufMOb2FzbpN3s0O/3CUM/SxpWrlwvli3TFWXRYzdWdrIj42TsLhexphQRcArtNKHJoo80BjtwBF7IbbfdhoeXhUIYVYa7KurskINCTco9I4sYyFTWotqAyonpYwjQonnDj72ehglRThGGYdar0tN5kS1bEtTmxKy2WndkhhcRlQUduLyVO3t3hzjn8H0flwrNsIVKM+NO2k+4/uhxXnH9jVQD51WekK3yoPUa+4+alAeB3KipncHD0FRN5pjjtT/yOga9AdNTU1k356KQ1kjdnlEp6SrbqjV3ZMT0uUMCXgScc3ieh1jBOEOgQnwCfHxe+6Ovp606pHmz2MIDItZlnh+XTT419hf1Fd0j9KgKW0lb1A4kFhq0cFh+8o6foGFCXCoo0aRpmhGOnQ8rkK0bc+enaARdIe+Fb93FqK4KUJKtgAebEa2gDZFiujnLHbe/CVUJQE9sXP5q0Ghdp+MeBGpS7gOynEl2rvEEsAofBZFw89RNzE8t0F3r0vCa2HhbEsJO62lZLXIMti2ue1vXFYWxjPLob/boeFO4SOiE09y8ePPYVupaZ1Vu63C7g0F9VfeI0haqirqtWSMrsUCa1+Oxmrlwlr7r8+63/TfMNOdI+w6Xgq8DmkET0FlXZeMhkllofd8vi2iJZFn8Ql7rFTC+hzGZK6OoMGeMIUmSsqenUqr8GwQBvu+XJAuCAN8L2Nzo0g5ahLpBd2WLQEI+dPfPEZMgIoR+A0uK53tZga1qScq6Rs++oyblHlD4IXW1lZwqNyCarNOWtSiBOT3LjYs3csvxW9k612e+tUh3vUsSxfjGxzc+/X4fsY5Op0M8GJTftSOCp0y3smXc6m7+yoKYaZoOFU+21pIkCa1mE5xmqjGNJz4qVtx8w0106OxOtkLPrrHvqEm5R5QczAeoM9lDTJ5uqLI65C5xeHjc0H4Fd772zTSZwvUVLb9dJj+HfgONwSWOht/IEqKhDIezyubhe3nkkNidQeQjhCwkLECSJKRpmqmfeVC8Uop2a4qVpRWmGlOkfeF9P3U3C+FiVq09V8l3pGzVhDww1KTcK0Rlleqg6DSQuTFycma5Th4kQhJFNAh43Stu58dvfRPdsz1m27M0vRZJL8Y4zUxrGkSIBoPMKjoi/bK/OQlV1rJuXGmQAtW29JBJTWNMSUoRIY1SWo02m+s9bjj2Ct73zvdj8Ij6SR4IUVR9H+njfL5Fb42XjZqUe8FQMSydtx/PxqotrKR5EHngBZCCwafFFO9+y7s5MXs9G0ub+HiEXkgapXjKw1c+ST8hNGGl/XkeO6RcHvmTvT6f+6NQWyFba3qeV649S8maCpubmyzOL7Kxus673/FuEpvg4dEwjTw7RA0FMciOOig19hM1KfeKygCVTLEkzfsdp8pmZtkkAc+n3ZrF4JMkKT+yeBvv/Il3sbm8RTyImW5NYaOU3kaX0G8M+f+2pWQmmrLXkr++MDsKFbYgpLWZ2muMIQxDQj/khZMvcNuPvpbXv+4NbK31UOisJEjth7zsqK/4XpFLSlWW6MkidFJSUklzg4yliBKQ1NEyLTwC3vT6u3jj7T9Ob7OXRfr4PvFggGdM1tEqTTNTLiPqax707tT4CnZVaK1LQxBkhIyiCGttaYltNps45/iZ97yPJk0WZueRPJ8y6yKmchW2IpHzn1Vj/1GTcj9Q8kAAm4eOW5TL0599L9sUxySRpambxPGAI2qe973rbuyWMFgd0Amn0Bi0ZGUfraRY7XDKInlaWJn/6BRaFF4e+G4wZdHnKrTWZS9M5xzWCnGc4hyEXpOt5S62p3jHW97J6171OiBrUaCUYIzKelWS90nJ2xZlB6YePQeE+rLuBVmFLDCZhApEETqNb8FPNUY0zoEoDVrjfB8/aJAmKS0V4qO5beq1vP1172TWmydZtxyZXmRtc4NYIlIvZiBdUj/CeQmR7ZOmMUYMAQYVK2zX4bsAO7B4OgALWntZGpbRRMmA1CWkzmJ8j0arSdhoMTMzR7SZ0Eimee31r+edd72bBk2ElM1oHatihBTP6Dy9OWtUBBpyQ5Zst+WssY+oSblXVAqdKwEjEJANZKN03m/D5D5Mk9dTVXgofDEIjn/43o+gB4aGarK8tMzs1AytVpOg4eM8h9OCKEHlEeAKKHqUaAxGeRjJJGwWyCCZO0YLxvNot9tsbG6ilYdLFJI44l6CR4MjrWPc8aNv5qajN2PyLhatsJEXyCoSoYsYV11amp0CW4+eA0F9WfcRSqnSB1i4IUbXe8X7Wue1YAmZYor/8Z576W8MOH7kBOvnNghUwObKFp7zMKLzlnUGtMqXpw6HBV18Z25NVQ6Vq5ZOCX7D59SpU1x39DhbG1221jaY7xzBdQXbtbz5jW/hjte/kSYNEhJ8/LK+a1ltr3Z7XFbUpNwn7Ea8quFlxz755ffxecXsjfyj//4fsXx6haMziyyfXqFhGmhrMilVWS86nRcFUQ6twcslchZMkBcOyYMLBlGf6elp1lbW8cTjVdfdzNqLa0x7U9x03U38g3e9h4VwAdB4GHyCshaPVrmjVRnA5OeepW+N74RSYz9Qk3KPuNQ8xiFiomnQwMfg4/Pq617N+9/9fpZOLXPjsVcxHc6iUpUT0wPROLJ0L6szS6/RGqNBacGJJXERolKcSnBYgsAjCAKUCJ2wTbQe8aqjr2L55Br3ffQ+FoOjJGmKdS5fU4JYwTN+6X+tcXlRX/EDxvlIq9B4eHj49LcGTDPDT9zxk/zE63+SrXNbmNRDJx4q1qhUofIQIad0lgwtgud5eJ6Hrw3DwQSSe0vBpinXL17PuReX0Ynh3MkVfvPXfpMT7euxzmIjR0u3UBjswG5L5rqE5BVBTcp9wHlLbZz3g4DTSAqzjRkAFpjnZ971M1w/9wpM5KEiD5UaVOKB05lHpKjboyD0fBp+gG88jNIYpfK/me/UxhbjNBsrW9x04mZOP/MSH//F+3jDq96Idh62b+mEbQx5yzsTYExAprZmTWLrYXJ5UV/tA8L5AsSH3wCjA5TVSAyC4ljzBB/90C8yFy7gxT4m8jGph0k8jPXK/pdKNJ728bWPb0xmosmbvHqi8cSgU2G6Oc3G0hobS5v82sfv55YbXk1IgEk0s+0ZGp5PEqfEgwRjMp+qHSSX72LVGEJNyj1it76PVWPPuP1LZPEGBCqkoVsENPDwmfJm+dhH7+Po1HW09BQm9ZBYQ2pomCaBCvFUQNpPmG3P0Gl0sFGCR4CKHSo26MTgpQG2Zzk6c5S33vlW3vSGuzgxez1bG12aQYM0cqSxYJRH4G33NjFhxfJaW18vK2pSXmkMNQQyGDEYAgIaNGjyP/3Sr+IlAW3VIUh9TGIIadBb7WJ7Me2gTdqPaZgmpJrZxjR2yzJlOhztHEVHit5yj3e99d38wt2/QIOAOIqZnZoh6iblJFE2tRtHwDFm1lqpPTjU13USkPsXlDJofHx8Qho0aDPHEX71f/ifOdo5ht0Sjs/ewNa5Pm3TZiqYpmFCPDHcsHic2WCK5VPL/Ngrb+P00y+xcWaL2WCeD/z9/5affvtP06SJr0KaYQuAMPRzUsq2obVaWhZqv8cVQE3KK4lKQyAxxVsqd5CENGjhYTgaHuW/e/8/5C1veAvLJ8/RkBATe7S9Nm7gODI9z0J7no4/zYm5Ezz89Ue4+ejNdOjw99709/jQuz/EEW+R1Y1lGjrEoIijBDzQWfxcVjpSSZ4TmkXXS1FDcsQpWfP0YFGT8gpDFLhCSuV3QwEeHgEB1ioatDjSPMbff+t7uP2WN9BSbTZeWkf1oRO26a33IYY3ve4O3BZcP3M988E8n7r3U7znHf8AlwAIR6evQwHWJRhfY52lSNiUorFI2X5BKvmgO1EHDxwcalJeQRSpmFlzoCyjJHcxZnG0aHSs8fA5c+oMx5vX8aH3/Sxvfv1buPXG15B2U4xoOmEL27dM+dPc/VPv47U33cbHf/Hj3Hr0VuaDBVQfsgq0miSOANBG4fKyIuAoKisLDoUq36/tPJcfdeHOKwzJC2woFJYsoB1HFr8qWX/LpeVzvOaG1zCgh3aG977lH3DTK27kq1/5fwmUj1iY6czQ8EI6jVn+l/vux1lNGqekCSxOHwUU/UEfz/NQWuFwaKOx2FzqjQ8UkPz9IiRwKEtt6I0a+4VaUk4AqjehkJzFoI8GKYsLRzAotta2mNNzDJIeP3LiNbzmFbdiUg/Xd0z5UzBQzDSmCWjSMh081aQZtrGpgBiajSmMF5KKMEijigRUqPzVdh8xXfm/xuVEfb2vIPIQADQKIypb3uXbHGBFCBpeXh4yYa4zi4/HEX+eZDPmx278MabUNLPePPFaSkNa3PyK10ACSezwvQZGh2jPx6pMEls0KB/Pa5Oi0eKVqVkqT2PW+Vnp8uz0zjVkvag8MNTq6xWG2q3CuSJvGWDRGoz2UZKQUcdjpjGNnrOc1E/ha43RIU2/ReCFaBMirmwkmUndkXiF6jYFoFS2rFTbxSRrzl0Z1KS84thenCm106iSFb3KU7NcVkDZM5rQD/Fm5wmaDbQ4fD+g0W7hBQFoneeSUB6z0Ih15VuL53V188lCrb5eYYwSYpQfw2F6WclI6yyCoLXG832c0ihjCBph7njcedxqXMBQnICurCxrck4EalJOAIrkYSrSreBHlZTVQspOHFYcJgixzmUVCLxc8Rkp4Fwei20y5jEDZY/JmpCTg5qUE4RxUjPLNMne10pjtEErD6OyELmw0cBpA9rgeVnKlbW2ZGJRJaAKTVbvS1dKVNaYHNSkvOIYLqg8yo9xOZmS/zPKp9OZwg+DrAOX7+VHLCRkpRTJyONCEQF76Q5dY2+oSXkIsE0ujXWOJEmwWVdZGq0mvu9jfA9daUmw662thujswrmajFcWtfV1IlCNptEj/R+LVuq5c19rtM4qmztxhGGI53kkSUIYhgjg+T7W2rxH5XgV9nyo1dkri1pSXlFcSg2cYStsgay1gM78mEqV+xXNZutOPIcPtaQ85DDaJwgCjPbzBj5S+iQzUuavCulXukULstbz8qShJuUVxyVKSyEnVEayTrvN7OwsWnn4fpi3UtcVSVnjsKEm5USgUDMvVWpppjuzmaXUKQLPL8tLap03eh3lparV2UlHTcqJwkWqlKKp9qGbancQUSitsZaSkLt+vPK8NulMHmpSXgXIquflPkpxeU4HZdABjPN+vBzJXONyoL4rE4FtP+RFI+9DF0eFzzLvipV3+brwsepbP6moJeUVxSgxdifKtu/Q5K8BHJ6ffaboMKC0lz/PKwboi/+OGpOBmpRXHHshia4d/VchalIectSkvPpQ6zI1akwYalLWqDFhqElZo8aEoSZljRoThpqUNWpMGA6F9TWKIoIgIIoiwjAEoN/v02q1zvu5OiD76sfFWJ/jOAaqNYsUaZrieV4ewD9ZJVEOBSmLYlEFIQG8vEhUVoJx/AWdpAtd4+Bwvm7ZWuss+VskT/p2aK1xbnID8w+F+qqUYjAYkKYp3W6Xfr8PQJqmQC0Rr3Wcr4v21tYWAM5lVRqKCCcRIYqiK3nau+JQSEqAIAjwPK+UkJCRMkkSYPjG1Lh2UCVZFcXrdrsNQJIkxHHMYDAgDMNS65pEiXkoSBnHMXEcs76+TrPZxFpLs9mc2DVBjcuP3e5/MT4ajQbtdpswDMt90zQdExt85THxpEyShE6nQ6fTIUkSZmZmym1xHJcXuErMOuv+2sQ4aen7PisrKzSbTZxz5dKn1WqVk/qkYeJJ6fs+W1tb/NVf/RX/5J/8EwaDAZ7n0Wq1CIKgvKjjZsqamNcWxt3vXq9Hs9nkvvvu4+677+bYsWND2xqNxuU8xYvCxJOykJTHjh3jpZdeIo5jfD+r3GatzaqB16ixCwqDj3OuHCuDwYAgCCZSdYUJImXVtVE8r15Qz/OI45hGo1GqrcaYoez63Y5b4+rFhXhV+CTb7TbNZhMRKV0kQRDsGHOTgIkh5flQLaFfJVlNuBoXWhOeTxpOCglHMfGkHCWjiAxZXGtiXtu40P0fN5lPukFw4kkJ46VjQc4LXdNJnQ1rXB5Ux0tVRZ3kcXEoSFnFToLWa8oau+Mw3v+JJ2UdGFDjfLiYsXHYiDnxpISdgQHV9w/Z9a6xz7gQ4Q7jhH4oSAm7X9wLXfTDNkvW2F8UxpyqYXDSiTrxpCxIVfRbTJKkTMHJzOGT6QA+bChcB1UXw7gBPWrFrOYoVjFuMqy6J4rvyXzNMvbY477zWsDEk7LGwaPqQH+5uJjPjhIeuGBEVhE8ci0RsyblNY7zLQsuxn3g+/7YfaoStCDVcDfqrJD0aE5jNSeyetxrKZyyJmWN8xJzN3W1QJHPuhuKxOJxqimQN7odPo9xGT/jzgXGtPq7ClCTskaJ80W4jJKjIE6j0dgRNVMl1GAw2OHWqkrNatJ6FcU+VdJeK6hJeY2jSjBgSKqNbhuHQv0cjUEdrQgwGhZZ/C1CJkfPqRqBM87YczWvMWtS1kBEyjXedvjicFgaDEvLAkXGRdUYU6wJlVJlJbniewoU5K/GMY9bw25b2a8d1KSsAYyPnBqNFR0nnaIoGivJqkQryLfb947uX/3+NE2vaqk4DtcMKT3PK6vfQVaIK01TlJLSB1pY+LTWBEHAYDCg2WyWJSR83y8HSVH2sjhm9fi+75f+1GJA+r6PtbYcnGEYDlkei88X32eMwfM8oijCGEOj0aDb7Q59bvQ3FagSqNVq0ev1dpRV7HQ6ZaU3EWg0WmxubgJw44038qlPfYr3vve9NBoNer0eSZLgnKPZbNLpdDDGsLm5yUsvvcSLL77Ir//6r7O+vs7Zs2dpNBoMBgOOHj3G/fffz7333suzzz6L7/torRkMBiwsLLC4uMjZs+c4ffo0v/u7v8tXv/pVnn766fIahGFYVpeoXrth4r7sITGxuOpJ2Wg0hgZ/q9Wi3++TJEk+cF05QGdmZkiShF6vx2AwwBhDv98va84Wn/F9H2NMWRktiiLSNC2DGgqLZNWMX0iBgrBVq2W1VkxBsqKqwuLiIktLS3S7XbTWZUHqKIp2XesVVf/SNKXf75eTSfG5IAhKQgLMz8+zsrKC1pp2u83zzz/P17/+ddrtNj/1Uz/FLbfcgojw8MMP82d/9mecPXuWW2+9lbvuuovbb7+dH//xH+dnf/Zn+Y//8T9yzz33lKQ7c+YMX/3qV4njmA9/+MPceuutGGP48z//c771rW9hjOHtb/973HHHHbz1rT/Bn/zJf+bnf/7ny0kwjuNr0k+JTAicc0OP6vtnzpyRr3zlK2KMEUCMMaKUEkBAn/fhecHQa609AS2NRks6nWkBpNVqCSBaa2k2m6K1Lt+bmZnJv2f70Wg0JAgC0VoLIJ7niVJKjDHi+740Gg2Znp4WY4zMzc1JEAQCiFJKwjAUz/PK4xTH1FpLp9ORxcXF8r3p6eny+dTUVPl8cXFx6Lzm5+eHjlUcv/hbfDcgc3NzQ7+j+Fyz2RTf92V+fr7cNwgC+chHPiLr6+siIvLLv/zLQ59VSsltt90mjzzyiCRJIsvLy/LNb36zvB6AzM7OCiC/8iu/IoPBQNI0lbvuuqvynaF84Qtfkl5vICIi/+Jf/K/i+6GAliBoiOcF5T2rPpQy+XPO+yju0W//9m/LyZMnh8bW6LibFFz1MWqF5ClUofn5edrtdlmod25ujl6vx9TUVFntrJBahQpbfL5qUUzTdEeomLWWdruNtZaNjQ2stayurhLHcVkTptPpDKm5YRiWxZu2trZYWloqz31jYwOAmZkZNjc3y1qlS0tL9Pt9PM+j2WyysrJCFEXccsst5fEbjQae5zE9Pc38/DwiwtGjR1ldXeXo0aN4nleqhIU2kSQJa2trACwuLhLHMVtbW0xPTwPbFtVCSxARnnzySd74xjfyuc99jvn5ee666y4+85nP0Ol0aDabrK+vA5SlOKy13HnnnQDltX7f+95HEAR0u33uueeeUotIkoQgCErNZHS9ebXiqiclZIQqBtba2hrdbrfsJbG6ukqj0SjXUwCzs7OlilkMEMnV1qJgl+d5JZmK18Xxi1KYRbTLwsJCuX15ebn8XPX4jUaD6elpgiAoz2N6ehrf9xkMBrRaLaIo4tixY6UqnKYpaZoyPT2N1pqnn36ara0twjAsCw8PBgNWVlZQSrG0tESr1eLcuXMEQVAWKK7GpAZBgIiwtLSE7/uICP1+nziO8TyvXBsDnDhxovzsr/7qr/LYY4/R6/W4++67efOb31yqoTMzMzzxxBMYYwiCgEcffZRGo0EQBGXJUKUU7XaTJ554oqw4dzUT73y46klZNAZaWloqB2Cj0SAMw7KvxH333UcQBBw5coS7776bz3zmM3zyk5/EGMPi4iKQEfWf//N/zu///u/z4Q9/mOnp6dIxXki+RqNBp9NBa02r1eJjH/sYn/vc5/jUpz7F3XffXUqlwWDA3Nwcg8GAqakpBoMB73//+7nvvvsQEe666y4eeOABPv3pT3PvvfcSRRG9Xg9jDGfOnCmNR0EQcPz4cf7ZP/tnfP7zn+f+++/njjvuKLdPTU0RhmG5xlxYWKDX6/Hxj3+c//Af/gN/8Ad/wK/92q/R6/WYnp6m3W4zGAyYnp4u6+wWxqeiQr0xhk6nA8Dp06eJoojp6WlWV1f5yle+QqvVYmFhgY985COlBrG5ucktt9zC5uYmm5ub5YSRpmm5llUKtrZ6/P7v/z5nzpwBMjLHcUySJFhrx0b0XJW4AirzWBzUmrJYVy4sLJavT5y4Qf7Vv/rfpd+PRERkc3NTPvGJT8hjjz0m/X5fer2eiIhEUSSNRkP+/b//97K0tCQbGxvS7XYlSRL58pe/LEeOHJHrrrtOADl+/Hi5jvujP/ojieNYHnroIfna174maZqKiMjS0pLceeed5XrtE5/4hJw+fVpERM6ePStf+tKX5Mtf/rIsLy9Lr9eTJEnEWit/8Rd/Ua5vZ2ZmxBgj7XZbvva1r8kzzzwjn/nMZ+TP/uzPRESk3+/Liy++KJubm3L69Gl5+9vfXq6vfv3Xf11ERB5++GH5vd/7PXn66adFRGR9fV0+9rGPlevTYv9msynvec97pNfryerqqtx7772ilBpahxZrtlarJa973evK3/KNb3xDWq2WNJtNAeSee+4REZEkSeRNb3qTtNttmZubk5tvfrU888xzcvbsOfmX//J/K+/R/PwRAS3G+JX14/Z6snhwFa4prwlSDhsGsuc/8zPvl9/+7f9DkiSRNE3li1/8onzyk5+UV7/61fLBD35Q4jgW55ysrKzIn/7pn8rb3vY2ecc73iF/+Id/KCLZQP7Qhz40ZAy67rrr5NFHH5VutytvfetbywGxsLBQEv7MmTMlqV7zmtfIP/2n/1TOnj0rIiIbGxvy+c9/Xn7u535O3vve98o3vvENERFZXV2Vn//5nx8y3BTGlQ984AOlEegTn/iEJEkiIiJf+MIX5F//639dfubf/bt/J0mSyG/8xm+UBpjFxUX5gz/4A4miSFZXV+Wnf/qnRWstvu8LIGEYyjvf+c7yXnzyk58cMlD5vr/DMLW2tiZpmsrTTz89RI5f/uVfltXVVen3++KcE2utxHEsg0EsL710VlZX1+XjH/8VmZqaKQ07xvgShpkxqGrsqUl5mXBQpDTGL59r7Q1JTM8LZGNjQ0SkPG4hAX7rt35Lut2uPPfcc+WNLSThgw8+KCIi//bf/tvyvfn5efmN3/gNERH50pe+JMYYaTab5THvvPNOERFZW1uT3/u93xOtdWmx/eIXvygiIt/+9rfF9/3yt3meV0qz3/zN35QgCCQIArn99tslSRJ56aWXyoHXarWk0+mUv+ejH/1oue3uu+8WEZFvfvOb5TkVD611OSn8yZ/8iWitJQiC8hze//73i4jIysqK3H///cKIBReQdrtd/h0MBpIkiTzzzDPSaDTK3/nRj35URDJJ+Y//8T+WX/qlX5J77rlHPvOZz8rJky+IiEi325eHHnpEms12eY+CoDFWWm4/rj5SXvVrygKFj3B5eRmAqakppqenabVanDx5kkajUTYOSpKE3/md36HVatHpdMo2akeOHCFNU37wgx8AmQO+1WoxNTXFysoKH/zgBxERHn/8cay1ZRDAwsICjz32GF/84heZnp7m9ttvL6NlCguoc46TJ08SBEFpcQRYXV2l1+vx2te+tgwAv/HGG/E8j16vR6vVKn2jW1tbZQOkxx9/nIWFhdK6WazNima7hR90fn6eP/7jP2Z1dZUPfOADLCwslCFwxpjSAjw3N1euwYtgBIAjR47Q7XYBhvynp0+fLq3RIkKz2Sz9xQ888AC/8zu/w3/6T/+Jj33sY9x000380R99nlarwate9SoeeOCBoe+UayzR+aonZXEzJa+IDZlpv7B0aq2ZmZkpjRdF5Eqv1wPgxRdfLKN/zp07B2wHX7/yla+k1+uxuroKwJ133snm5ma53/z8PHEcs7y8TJqmnD59GqUUN910U3mcwr3gnOPEiRN0u92hoIOzZ8/SarXY2Nig2WyysbHBSy+9BMCxY8c4evQoc3NziAi33nora2trWGt54YUXWF5e1OaAxgAAFUNJREFUZmpqire85S1Ya+n1eoRhSLfbLQ0lKysrPPzww8zNzbG0tMRNN91UlvVvt9vcfPPNDAYDlpeXiaKImZkZoijCOcf09DTnzp1jdnYWgLe97W0AdLtdHn744dJAU1SMKIxOCwsLQGa1npubI01TPvzhD5Omjvn5WW666SZ832d1dXVs4EA1tvZqxFVPSqVU6Y4ofI6e5/HSSy+RJEk5e8dxTKvVot1ulwMuTVOuu+46IBtAU1NTZb/Dfr9fRsUsLCzQbDY5c+YM09PTHD9+nMXFRVZWVlhcXCQMQ+bm5lhfX2dpaYnV1dWhMidFW7/ChWCMKaODCknV6XRKH+Jzzz3H448/TqvV4oEHHqDX65GmKb/4i7/IkSNHuP/++zl9+jTHjx+n3+9z7ty50idaHeRaa5rNJo888gibm5ssLi7yrW99q7weGxsbfPe736XRaJREWltbY3p6mqmpKTY2NsqJBDJSTk9PE0URn/70p5mamiotwddffz2nTp0qr92rXvUqINMEbrjhBqDwv0Z4nlcSeDfiXc3S86onZSF12u32kE+wUN0KM7+I0Ov1yh6YxWz8/PPPlze/IPH8/Dy+73Pq1KlScvT7fV544QW63S7vec97WFpaYmFhoXTFFMSYmZnh8ccfp9FolI84jomiiNXVVY4dO0YURaW7ZHFxka2trdJPCFlQwQc/+EEefPBB7rjjjpLkv/ALv8B73/tePvvZzyIivPjii3Q6Hb7zne/geR433HADWuvS/9hoNHDO8epXv5owDHnqqadKorbbbXzf5/jx42Xo4eLiIiLCxsYGm5ub+L7P6dOny5zHe++9l8FgwIMPPsgTTzxR+n6L77rhhhs4efIkMzMzPPvss+W9Kci6urpKsxnS6/VK0hVVCqq4mgkJ1wApgdLJDpRrHMgc+UmSlIMzDMP/v73r/Y2i6v6f3Z2d2d/dbrvFQkstEGxrQGIiGJVY0GAjFVQwMUZpTEj0PyD6zsSYKG98YwjJk6++JV/8QSQQNUgCkUcl+oKoqKhAoGWt/bG/Zrqd3dn7vNjn3J6dznYXC4/TLZ9k0x87c2fmzj33nHvOuZ+Djo4OlEolqKoKy7LQ0tICTdOqEtCnp6ehKAoKhQIymQzy+TwCgQBOnDgBj8eD1atX44EHHpDmo9/vRyQSwZ49eyCEwAcffADLsmRyttfrhaZp6O7uxp9//inN7EwmA8uyEIlEEI/HoaqqFOKLFy/ivffeg67reOyxxxCNRtHb24szZ87IymThcBjpdBqHDx8GAPT29uK1116TyQuUaL5r1y6oqopvvvlGrk8p15a0Ns88ikajCAQCKBaLMmn+559/ht/vx9WrV7Fr1y7Zr62trQAqVophGFi1ahVUVZUmL000g4ODGBjoQ6lUxsGDB6UZvxQYzW81ml4oQ6EQgMoWI3JS5HI5dHV1YWBgAMFgEKOjowiHw4hGoxgfH0exWER/fz/8fj9mZ2eRz+elEHV3d0sB37Jliyw+WigU8MYbb2BychKWZeHbb7+VAXNFUbB3714kk0l8+OGH+Pzzz2U2TzKZRDQaha7r0lSlQR+JRGBZForFItrb22EYhqzNefLkSRw+fBiGYeCJJ57Ayy+/jJGREaxatUomvVNSwLVr1/DJJ58AAA4cOIBHHnlEJkX09PTgueeeQyqVwr59+2QWkaZp8Pv9GBwcRD6fh8/nw44dO/Doo4+iWCzKZPxnn30Wo6OjCIVCuHDhAvr6+qBpGiKRCAqFAsbGxgAAmzdvhs/ng67reP3115FOp+XE9+KLL+LIkSMwjALefvtt6eghJ1aza8Z5+F+4eBvB7Y5TqmpAtLd3CMAr4vGEOHr0I5HJ5EShUEmENgxDHDp0SAwMDIjz58+LfD4v8vm8EEIIy7LEwYMHhaZp4vz580KISoiAkgyefPJJ6YJfsWKFOHPmjJicnBRCCHHlyhUxPT0tisWieOedd0QoFBKKoghN08RLL70kdF2f1xfDw8NicHBQmKYpSqWSjD2WSiWxb98+AUA8//zz8ngKg1CSghBC/PHHH2L9+vUyrujz+cRHH30kLMsSQlQSGa5fvy6EEOLo0aMC/01oCAQCQlEUsX37dpFKpWR7pmkKISrJCdRGNpsVxWJRnDx5UuzZs0coiiLDI7FYTCiKIt566y1RKpXE5OSkbIP6vBKrrNzzuXNfi6GhJ0U02iLf0XJNHvAI4Y4pyH4bnPbwr7/+woULFzA0NCS9eXMOi/rKnnOaejwetLS0YOXKlTJBm8zIZDKJr7/+Gg8++KDMNaX9jJRXunbtWhkqSCQSct05Pj4uQwaxWAybNm3C5s2b0dnZiS+//BJnz56VXlrLsqBpGuLxOAYHB6V3NpFIoFAo4NKlS7AsC2vXrkVLSwsuXbqEnp4e+Hw+fPzxx/B4PEgmkzhw4AD27t0rPcTpdBr33nsv2tra4PN58O9/f4OHHnpIaq1SqYT7778fu3fvRjgcxo8//ogzZ87g+vXrmJ2dRTAYhGmasCwLGzZswPbt26ucT2TGm6aJTCaDXC6Hc+fOIZPJyJRDnuju9Xqxc+dORCIRhMNhqKoqw0zUzunTp3H16lVcu3ZNXofya4vFYgNk241RVB46dAjDw8NYtWpVzcR215jI/+SMwHE7NaXXq8zLCAkEQiIWi1dpUpqlNS0o4vGEzCjhx0UiMREKRQRt/7JrY9oq5vUqIhKJVSUvUHt0L/ynU3Dc5/PP27ZU2W7mFUeO/L8YHb0hWlvb5LmKoopgMCz+9a//E0IIcePGnzIbRlFUEQiE5P35/ZpobW2r2WeKoopwODrv+oqiyq1VgFeEw1F5fa9XqQr2875QFFV4PD7h9SoiEAgJTQsKj8cnIpFYVXukAfk5C33QhJqy6Tc5A3NxRYptWZYld1AQPB6P9BbSpmUKsHOeGcMwZHvkpKE2+XHlclmGTDyeStVpapPfCwDpaCJtQ6ELHq+kIH0+n8fBgwfxzDPPYP/+/dJT6fV60d7ejlQqhVdeeQVPPfWU1DbA3PYyWg8Xi0WpuSlRgTQTbeXSdR2KolSt6chSIWcUXZ+ek46lDzEo8LUhJRgIIWQf0XHUR2K5rSMZloVQEihYz6k5VFWtEiZiIbBT7HOiJ2COr5R7CAlEJkXt2mkUaaCT0M3MzFQNQD5ZEDUGJSTEYjHs2bMHXq8X/f39mJ2dlcwCqVQKPT09iEajUFUVn376KYCK0JdKJRmTjcViVZMGZ0EQ/92q5fP5JJUIUL2ccKIgoWM40RU9nxORMm0/45MVvR+iZhHC/XU/bgea3vtqz/wg7UHrSxIcGrD00z5QnTJLaLBxTUGs31zQ+b5JWg/TuaTB6HxN0+T9qqqKmZmZqqQFy7Lw/vvvw+fzYGRkBK+++iqKxSLi8TiCwSBu3LiBd999F4ZhYP/+/VAURWbWELLZbBUdCIFPHlzzU8zWqVQ5/Z/WbnYKFN4v9r7jkxz1Y6lUkqGY5YqmF0q76cpBwkADgO+sB+Zz7BDxE880CQaDMoZpZ3wLBoMyZELfcwIoSmKg6wkhpAkLVLJqiHVA13VEIhHouo4333wTx4+fQGfnChw69B7GxsZw7Ngx/PTTT5iYmMD09DTWrFmDZDJZZQ6SFqLnUVVVOmcooYDCIV6vVwoIaUDeH9QP3FTlAkZakP/t9A74+yHwSXM5YlmYr2QGOQkOmZHcZOLfc21YYb/zVJlv5J0koeVmK31HIGY2Op+Oo9xapxIAmUwG8XhcxktpzffCCy9g69atGBwcRH9/P2ZmZnDixAkcO3YMFy9ehKIoklrErsXInKXr201OVVWrPNxOa7ta1gP1BU1AdGyt42giIDOW+oZbD8sNTS+U1WXzFj6O724nhgDehn1wcU1RLpel6cvXXyRw5XJZCgGnngQg+W74fQBzlJbpdBp+vx9+v186hIQQOHv2LL744gs5UZAg+P1+hEIhlEolmezOwXOA7ZrKfp9OjHxcO9pBx/B2a/U9teXE7sfX3MsNrhVKepHkWaRBQOuNWi/MPnAafbF8DQhUO1tqtVHL4cEHq71dp/acNDNQMeO4d5dAz6jrehVnDgC5JjUMQ3IHeb3eKrO53v0vdJ/1PKL2YxaaDGt9x+/rVnlgnSwRytJyG9x3RzZwJ4F9hnZyIPDjlgPICqAP35+5kEYDmss0dGJYp/8DkP4APhG41ZnkWk1JsHc2H2SVWa46VNFswljvebhpztd59p/2dpzW10sVdmHklhI5nMhiIAeSGzUkYckJJWB3AjTHwKqFRoTSfjwXwmadrJxgr/RFv9ezGNwG904XDLVME8DZVK117HKCk2Xh9F0zgT8PtwTI423Xkm59/iUhlEB1nNGp852wXASz3nrKjqWmORaCffLhloO91iY/HljYCfVPwvXmK48xkheRf+fzzc169hewHGBPRbNPWM0OpxANZRjxNTOFlAD3OwKXhFACtbUBzYbN4rSwo/7WpdoDrBn7oxHYtSIl0FMaId8U4Ea4RihrmV5UfMeyLDz++OP47LPPZHypEuwvyLWC369UxeNoB/7NXNdtA9llt/M/B09BpJ/8Hfn9c/U6iX+Iyi3Quffcc4+kE6UYN/fEug3unCoYQqEQ0uk0VqxYgS1btshCPcFgEMFgsMokofqR1NF2geTatlaC9R24C7R9jsde+fujXTKhUAhCCEl/ScKnaRoefvhhrF69ep6wujVO6fpRKYRAJBJBIpHAxo0bsW3bNsldSqRNVBKOSsVVxzGrwV/oHaF0F2otT/jH7tihVEEiC6NxQCbqfffdhx07dqC9vb3K81ovm+mfhGvM11qg3QzhcBjr1q3D0NAQ0uk0zp49i1wuh1AoBNM0q5K/ae3AO97tZupyh1PwH5h7l/Z4I31qCdddd92Fzs5O7N69GwMDA/B4PLIiGlAZG2RluQ2uF0pgbl25bt06TE1NYefOnUgkEjh16pTk2KGd8PQyaaZ0EsY7Arl0YM8d5ssPnvhOZf8mJiZQLpfR29uLp59+Glu3bpXMfXypQ2tP+wZ0N8B9d2RDqVSSNJE+nw9r1qxBJBJBW1sb2tracPz4ceTzeeRyuaq4k6IoVawCtcIlblzoLzfwzdDAXJiHNiA4HUvHkcmq6zoymQza2towPDyMoaEh3H333ejq6pKUnUBlO53f75dLHzfC9ULJZzPTNNHZ2SnrfnR1dWHDhg04ffo0Tp06JWn9A4GANG3s7vE7Zqy74PReSCA9Ho+kVuEfvo+TWOsDgQBGRkawbds2RKNRJBIJ9Pb2So8rgHmsBrxqtpvgGorJhUCFaXw+n+SzoYI5xWIRY2NjuHLlCn7//Xd89913+P7776WA8pfu9Lt9TbIEuqOp0OhkWes9btq0CVu3bsXGjRuhKAqi0Sj6+vrQ3d0tlzWFQgHBYBC5XA7RaBRAZWseTd72a/zTWBJCCczP2KHf0+k0DMPA5OQkpqamoOs6Jicn8euvv+K3337DV199Jek0+KNSTMs0zYYE0emF8Q29Tm1wh4U9RZCfW2sXzEL38Xdfm9384+bhzWREkTfUPqnRWo9n2thpQvha0P5/TlAmhKjyqHs8HrS2tqK/vx9btmxBX18fvF4vIpEIkskkVq5cifb2drncIRaFRvvDLVgyQgk4p9KZpilLrWUyGaTTaWQyGUxMTMgSArlcDqlUCpcvX8Yvv/yCy5cvyxIBnP4QcF6zUDKzHVzoiCXP4/FUbaitlQJXCzyWSm3xdm72dS2083+heyBw54jTRmnOrNDIvdTi/KHrcuEEgPXr16O7uxt9fX3o6elBPB6HpmmyhmdfX58s8UCEz9Q+xSsbfVa3YEkJJTB/NucZ/zSAy+Uycrmc1KITExOYmpqSMy9VwZqamsKlS5eQTqcxOjqKsbExTE5OVrEOcJCDgILUFEM1TdPRS8gZEmp1czAYlPfMNykT+KD6O7m99TSwPeTQqABz7W5PAufEYgtZIqQVY7EYOjo60NXVhe7ubqxevRorV65EPB6HaZoIBAKS0Y+KHSUSCUSjUUkTWgv1+uqOUN4m0NacSqrdXOyJTFbTNFEoFGSJuVwuh2w2K6tOkRYgAuJ0Oo3p6Wnouo4ffvgB09PTSKVSSKfTddP2aDMtDXBOrMyzUhYCD5IvlqeGtA4x7lF/OWk9u5bmoQfSPpxQmp8D1Bb8QCCAWCyG1tZWJJNJdHZ2SqHr7OyEqqqyoBB5zSkJIBwOIxgMyqrZxCBA16RShnYz3I3C1iiWvFDOzs7KdQcwl1rnFBimzA8qNU4Dc2ZmBtlsFplMBoZhYHZ2VtIcApDJCYVCATMzM8hkMpiamkIul5OVnFOpFMbHx2WFLoKTUPF8TjIv6Vr29Zh97x8Ntkb3BNYTamLgW4i5zg4utJZlIR6Po6OjA8lkEolEAolEAu3t7YhGo+jo6ICiKFJ7Utm/UCgki+UGAgEpfFTuj353Cok4rVt5+h31SyPmqxux5IXSDp4fyWd3ynmkeBUw5063EwqTZi0Wi8hms7IorGmaUoBIY1CuJV23VCrBMAxks1noug5NqyRMG4YBwzAwMzMjfzdNU/4sFApysqCfxEYHzKdBqeUwsYNyQvnOCNJGpD1pFwUViyWBobqaFAsMBoNVxW5JS9HfAOT6kseJQ6EQYrEYIpFI1fl0D1xouYDRvTmlQ3Khs09gBM6pu5TQFEJJJiq9YALVrOBrDqJnpAHBj+Us5mQm6bouSYxJM1Bp9UKhAL/fL+uSUFyUhLNUKiGbzc6rIQLMJVpT8VVOQEzXKZfLVZqsES+mHZxHlTQJCQGFDHj79hABN3/5hwSSzE5VVeX2KE3TpDOGyqRzh5GdIJrnIzuZnWRu07PwWiZOfbLU4XqhrBdHIhpGu0PEviajAUceUgByHQo4M6jzGiIkJDSQaDBxTezxeOSMT5qOygZwD2W5XJb/ozIK5BDhwsbvvdY6sJHXR5MMTTT2ADw9Px1Hnk3SUlwzc8Gm7+n5qb/o/6Tp+Ll0LTvsJjw3S2kCaQQk7Et5w4HrhfJ2o97jcwG3hyUacSg48b5y0MCpFTyvpwnrDbzFeh9psqn1Wez1eY6yXXjp+gvBjbmri0XzPZHLwJ1QTlgocR5wdlhxLJZnpp7Q0PXtAnOrzETenlObS1XbLQZ3NGWDj19LaG72vFrXr9X+7V4j/d1splvVvtNzNsO6cDFY9kJZD4sVmsWaj4t9PbdqgNe6j9shQPX8CM2OO+ZrA3AaGDzF7mbP5bjdQn8rYL/G7RaaRvu2WfEfdV98zB9GmsEAAAAASUVORK5CYII=;" parent="1" vertex="1">
          <mxGeometry x="444.48" y="660" width="130" height="130" as="geometry" />
        </mxCell>
        <mxCell id="kGaND2a8ccCfyIjc9hiN-66" style="edgeStyle=orthogonalEdgeStyle;rounded=0;orthogonalLoop=1;jettySize=auto;html=1;entryX=0.5;entryY=0;entryDx=0;entryDy=0;fillColor=#f0a30a;strokeColor=#BD7000;" parent="1" source="kGaND2a8ccCfyIjc9hiN-43" target="kGaND2a8ccCfyIjc9hiN-26" edge="1">
          <mxGeometry relative="1" as="geometry" />
        </mxCell>
        <mxCell id="kGaND2a8ccCfyIjc9hiN-43" value="" style="shape=image;verticalLabelPosition=bottom;labelBackgroundColor=default;verticalAlign=top;aspect=fixed;imageAspect=0;image=data:image/png,iVBORw0KGgoAAAANSUhEUgAAAMgAAADICAYAAACtWK6eAAAgAElEQVR4nO2df1RTZ57/3yHxBgIEoySoEfEHRlBs+aHWX0eFWmWdinZG3ZkpTo9Vd3vctqc6u1qn3S2dVtu6R+kZO+pZ187a2u5aukcH/Z6idkVU/EH5VQXxByKKUUJQJEAg14R8/4jJcJObSwIhRPm8zskfubn3uc+9ed7Pj8/zeT6PKBuwgiAIXoL6OwMEEciQQAhCABIIQQhAAiEIAUggBCEACYQgBCCBEIQAJBCCEIAEQhACkEAIQgASCEEIQAIhCAFIIAQhAAmEIAQggRCEACQQghCABEIQApBACEIAEghBCEACIQgBSCAEIQAJhCAEIIEQhAAkEIIQgARCEAKQQAhCABIIQQhAAiEIAUggBCEACYQgBCCBEIQAJBCCEIAEQhACkEAIQgASCEEIQAIhCAFIIAQhAAmEIAQggRCEACQQghCABEIQApBACEIAEghBCEACIQgBSCAEIQAJhCAEIIEQhAAkEIIQgARCEAKQQAhCABIIQQhAAiEIAUggBCEACYQgBCCBEIQAJBCCEIAEQhACkEAIQgASCEEIQAIhCAFIIAQhAAmEIAQggRCEACQQghCABEIQApBACEIAEghBCEACIQgBSCAEIQAJhCAEIIEQhAAkEIIQgARCEAKQQAhCABIIQQhAAiEIAUggBCEACYQgBCCBEIQAJBCCEIAEQhACkEAIQgASCEEIQAIhCAFIIAQhAAmEIAQggRCEACQQghBA0t8ZIPoHaz/fX9TP9/cUEsgAwwpALJFAFhUFZVISZFFRfr0/azDg0Y0beFBRAYvZHPBCIYEMIKwAwtVqJKxdiwm/+Q3ko0dDzDB+zYOFZWFqasLdggKU/+lP0BYWBrRIRNn939oSfsAKQBEbi3k7d2J0enp/ZwcA0KrV4uy776LqwIGAFQkN0gcAVgAypRJztm8PGHEAQJhajdmffopRqakBW0uTQAYI45ctQ0wAicNOmFqNpPXrIZXL+zsrvNAYZAAglcsxNiODM96wsCxu5+Xhek4OLCaT3/KiTExEwurVHOPAyLlzETl5ckCOR0ggzzhWADKVCpGTJ3OON5SU4MSaNTDq9X7Nz/WcHLAGA2Z/+qnjGCOXI/K556AtLPRrXjyBBPIMY+/XDwoLAxMezvmtoawMRr3e7zW2FYCuqAgWluW0aP42N3sKCeQZwi4IsUQCqUIBaUQEBoWFQZWS4nKuP7tVLvdm2X67t7eQQJ4B7JN/igkToJ4zByNmzsTQhASEKJVgwsMhDg72+3zHswIJ5CnHPr/x3Lp10KxYgRClksTgQ0ggTzFWAGNffhkzP/oIysTE/s7OMwkJ5ClGs3w55mZnI0ytFjzPeUBMeA4J5CnECmBUaqpbcRh1OjyorMTDq1fRXF0NJiICyevXgwnQybhAhgTylGF3OJz2/vsu4mANBlQdOIAr+/ej6epVmAwGAEDkpElIXr+ec66z2defSBUKl2Pm9vZ+yEn3kECeMkQAnlu3DtFpaZzjRp0Op//5n3H9f/7H4UYugk1QpkeP0FZfz2lB1HPmYFRqKrRnzvgz+5BFRWHC3/+9y6x+q1br13x4CgkE/efO7O0knRXAsGnTMPG11zjHWYMBFz780OEV2zVdEWzi0RUVQaHROI4rNBos/PprNF275td5CXlMDCLGjeMca9froS8r81sevGHACsQuCqlcDplKBbFUiqBBg9D5+LFf7m9saICpqcmrRUNiiQRJb73l0rWqyc3F1W++cZuOxWzGtYMHMTYjg9OKhKnV3Q7w/cH1775D07VrAeeHBQxQgdj78XGZmYhZsACKCRMQJPHfq+g0m9Gu1+PeuXO4sn8/6ouKui0cVgAx6ekYm5HBOd50/TpKtm+HyWBwm4YIwO28PJRmZ2Pq5s0BZdGqO3kSpdu3B+zqwgEnELsFaOaWLRg+Y0a/5SNMrYYyMRHjlixB0ZYtqNi7F51mM++59vUcfJaoyi+/hL68vNvC1Wk2o3THDpjb25G8fn2/+z5ZWBY3Dx/GuffeQ4tWG5DiAAbYikJ7Hz796685/fH+hjUYULBhAyr37eP9PUgiwbT333ep/fXl5fjryy97VcCCJBIok5OhWb4cquRkhA4fDpFY7IOn8Ayz0YgHFRW4mZuL28eOCbZ8gcCAEggjlyP9669duimBwMOqKuRmZKCputpRYOw+Vppf/xppf/4zp/WwsCxOrF7do+WqXcdfYqnUB7n3HIvJBLPRGLBdKmcGTBfLCiAqJQUj583jHGcNBtTm5eFRdbXf8iIdPBij5s/ntGJD4uMxdvFilGRnOwqwTKnEpNdf5+1a3fjuO9Tk5vaokNmvYQ2GfqkdnS1tgcyAEQgAqOfOdamFS7OzUfTxx7C46f/3BSIAI2bNwqKDBzlWpJGpqbh9/DhkKhXUc+ciZsECqFJSXAbV+vJyXPjwQ590T56WgtpfDCiBhCiVnO+Wjg7cPHy4X5r7+osX0VBSwhFIzMKFUCUngwkPd+sWYtTpULR1K5qetHj2FoAKet8woATiXBOb29vxuLW1X/LSaTbD3NHBOSZmmG7nJSQhIZj2hz9g/LJlaCgtxYPKSujLymDU6RytIInFdwwogTwLMHI5lImJUCYmQrNiBViDAW319dCXl+P28ePQFhTAUFv71AyCAx0SyFMOI5eDkcuh0GgwbulSGGproT19Gte+/RbaM2dIKL2EBBJAWFgWD69cgbm9HZKQEEhkMgwKDXUsmwVcu4ldETMMFBoNFBoNNCtWoDYvD5f37CGh9AISSABhqK1FXmYmjA0NAGwFXhISgkFhYQhWKBCqVmNwbCzC1GoMnTQJ4aNGuV1iy8jl0KxYgdHp6ag6cACXdu1CY2UlicRLSCABhunRo25jVYklEkhkMoRHR2PIxIkYOW8eRsyciSETJ7qIhZHL8fy6dYhOTUXJ9u2o2r+fWhMvGPAC8fdMsp0giQSSJ90mO1aLxeF6LlSAO81msAYDGisr0VhZies5OQhXqzF85kyMX7YMo9PTXczEQ+LjkbZrF1TJyfhp69aA9n8KJAZUbF7nRTlShQIxCxZALJHACvj1MzQhAYq4OE5+TI8ewWIyeVxwRV0+LVotrufkIO/VV3Fk6VLU5Oa6rPMQMwyeX7cOC7/6CqrERL/Movv7vfJ9esOAakF0xcWcAAZihsGUTZswZOJEv7qaMHI5xixa5OIwef/ChR7Pjtuv6TSbcSc/H7qSEoxfvhxTNm50uU90WhoW/OUvOL1hA+7k5/dZS2JfVhA1dSqUiYl+XRNvbm9H6927uH/+fK826xlwzoqLDh4MqC0A7Bh1Ohz91a98GsDZCkCVmIhZn3zC+8z2/Tm6LtP1FUFPnCyfX7eO113GXxh1OtQcOYLizz7jOIJ6ijgdyOqTnAUgZpMJxnv3MGr+/ICK8GFhWfz0ySe4kZMDdHb6LF0RgLb6emhPnYI4OBjK559HUBfXdkYux6j589FpseDB5cswe9G9E8Lunj/zo48wODaWc09/MygsDKrkZERNnYqGkhK01dd79YwDSiAiAM21tXh0/TpUSUkuvln9AWswoOTf/x3lO3f2SWQPEQBTSwvunT2Lx62tGDZtGscwIZZKoZ4zBxGjR+PB5ctof/iwVyKxApi0ahVmZGUFVCUUHh0NhUaD2h9+wGOj0fNx3kDqYtmxh+ucuGoVxixahNDhwyEJCfFrHuzuIVVff43beXluVxP6kiCJBPGvvYYZH37I6/OlLy9HyfbtqMnN7dFYyD7mWHL0qEukRwvLwuLke9bXOAvUwrIofPddlGRnk0C6o+uaC5lKBUloqN/u3cmyeNza2i8+U/Ylx3N27OANV8oaDLh76hQu790L7enTjthaQPdOkFbYoj2mHzjAGXM8rKpC0dateFBR4ZuH8IBghQKxy5YhYc0aTl7qTp7EkVdeAdvluYQYUFasrtj/bKNe7/dNZLrmwd9zESIAd/LzkZeZiRf+7d8wbulSTgFinuxGNXLePOiKi3Hr6FFoCwvRdPWqYyWgu3QBYOikSS4xr4q2bkXVgQN9+FT8NFZUYEhcHCeGmGLCBMhUKo9byAErEDsDcbJMBKCxshI/rl2LhtJSJPKEEmLkckSnpSE6LQ1GnQ7NNTW2cKZXrqD51i203rsH08OHMLe327pPT/Yb4VtzY285/P2ujXo9mmtqOALxNnrNgBfIQEUEwGQw4KfPPkNdfj6S3nrLJW6WHVlUFGRRUY4oMPbxBNvSgsdtbTAbjQ4DQ/ioUf58jD6HBDKAsdfo9UVFOPlP/4RrBw8ifuVKjJw7VzAskJhhIGaYgLJS9RUkEAIi2AbnNUeP4nZeHpTJyRi3ZAmiU1MxdNKkASEEd5BACAci2FxV6ouKUF9UBJlSiciEBCgTEzFs+nQoNBqEDh/uiM4eSBEa+woSCOFCVwvfnfx83MnPd2wMKlOpIB8zBrKoKIRHR9tWND4JMiEJDoYiLi6ggvL1FhII4ZauVqdOs9lhEm+srHQ5z24dmr1t2zMlkAHl7k70DpGbD2ATkMVsdnGXEQcHY/D48QD87+YulcsRNnIkJz/eeixQC0L4lIdVVS5LCpLXr0dHYyMa/TiTLo2IQFxmpstGQy137jiWNHsCCYTwKfUXLsBQW8vpZg2fMQOLDx9GW3293/IxKDSUd73+7ePHwXrhZ0YCIXyGCMCj6mpUfvklZvzxjy4uLP1tLtaXl+PqgQOwwvNZfRqDED7FCuDS7t2o+uorv27t1h2tWi3O/eu/er1oakCtByH6HhFsC9O0BQWwWiwYPH58v7YcFpaFtqAAp9evR+3x4177gw1Yd3eib7HvbTI0IeFvQbn9KJTOx4/RUleHu6dO4e6pUzDq9bQmnQg8ukaf9+c+kAA4rvk99SSmQTrRpzhPNvbXvXsKDdIJQgASCEEIQAIhCAFIIAQhAAmEIAQggRCEAJL+9o8hiEBG1FBWRhOFBOEGkdVqJYEQhBtoDEIQApBACEIAEghBCEACIQgByJvXCaNOhweVlYKr4VRJSYKhOYlnBxKIEw1lZchdvFjwnAV/+QviMjP9lCOiPxEUiL68HC137rj9fVBYGEbMni0YgvL++fNo93D/jcHjx2NIfLxH5/Y1/l674CssLIuGkhKP37mdIIaBNCICwUOHInTYMI9W/xl1OtQXFQG+nCkQiTBs2jRHC921DJo7Olz2lue7PmjQIEgjIhA+ahRvZBNvEBRI1Vdfud2uyh6Ya/7evdCsWMF7vYVlce699zzaatgKYOqmTZj96aceZbyvEDMMJDKZY2elp3H/kDP/8i9e75YbJJFAIpOBCQ+HQqOBeu5cjFuyhHcXKjsNZWU4+stf+rQyCZJI8MqxYw6BlH/xBSr27fM8CsmTVYsSmQwylQrKpCSMy8jAqJde6lG3uMddLPv+EiXbt2PErFm8e949jURNmYLFhw6huaYG9y9cQNX+/U9ta+INnWYzWIMBJoMBLVot7uTno2LvXiS98w4m/8M/9FvgBfvGPJ5i/6/sz9JUXY2bhw5h2AsvYMrGjYhJT/eqRRG0YgUxDMQSidtF6yLY9pao+M//dJsGExEBwP3Cd3uYSLFE4veNNPmw76yUsGYNEt98ExKZrL+z5DVShcKjFtv5A3BDirZotSjcvBkXsrJ49/QTM4wj0nt3/6/QRwiZUglxN2vZu3uWTrMZ2sJC5K1cifI//cmrcETirKwst2F/hsTHI/rFFxGVkoLWu3fdRoZovnEDw2fMQHh0NOd4kFgMVXIyYl56CWHDh+PBlSucGsG+oeS0995D4ttvY8yiRRgUFuZx5vsaY309rvzXf7nUYrG//CUin3uun3IlTJBYjKgpUxCzYAFUyckw3LrlsrUzI5dDERsLmUrl+IgZBhCJOHuliwBYOzuhKy5GqFqNYVOncu4VMnQoRr34IqLnzUPosGHQl5fD6rTPu1QuhywyElK5nPcjCQ5GJ8s6rhMFBSF+5UpEjBkDABiakIDoF1/EkIkT0Xj5sssWziFKJSLGjHE8hzQiAoNCQmBub0dnZyfnWcwmE+ovXoQkOBhRU6Z4tH+7oDTD1GqEqdWITktDQ2mpS1Rv+41btFr8vGsX72YrCo3G9omLQxVPVLsxixcjYc2abjNKeI79nWPxYtQXFaGputrxmxVA5OTJWHTwICfKiKm5Gc01Naj88kvcPHSI0620mM24sn8/xv/qV5x+PCOXY/iMGRg+YwaGJiTg6jffuLQ007Oy3I5RAVus3P+3fDlatFreytdeBkfMnIlr337L2XDVCmBsRgZmbdniONZpNuNxWxuarl5F1YEDuH3smGPDTvuwoHjbNigmTMDYbqyVgI/MvCIANbm5GLt4seDLIAIDMcO4WHdkUVFQaDQYMXMmGLkclfv2OX4TAWi6ehUPKiu9HujKlMpux6fSwYPRotV6la7jWrmcN08KjQYj583D5f/4D1z86COHcEWw7XtSlp3NsZa5w2fzIH09YGcNBuiKi6H/+We01tXBZDBAzDCQRUVBlZQEVUqK1/c16nSov3gR986dQ3tjI8QMg6EJCRg1f36v97iwsCweXrmCe+fOobm62mEVC4+OxpD4eCgTEyEfPTrgdmli5HIkrF6NmtxcTpeaNRhcdoz1yf3Cw21do7o6AIBYKvVd2nI5Et9+G801Nbi0e7fjuAiA9swZ3C0o6LZC75VAunaXug7Yp3/wQW+S5WBhWdw8fBiX9+yBrqQErMHgMrATSySQjx6NuMxMJKxZ061QLCyL23l5KN62DfUXL7rs/a2IjcWUTZswdNKkHuVZX16O8i++cBQyZ7rm97k33gi4WfmIsWMRpla7dGfYlhaf30scHIy0PXtgNho59/dZ+gyDxLfewp0TJzhxeS1mM2qOHHHZJ96ZXglEplTCYjJx+p0Ve/ciZsECx5bBvYE1GFC0dSsu7d7N2fjdua/aaTajqboa57OyoC0owJwdOwTt9ze++w4FGzY4akjn9Jqqq3H6979HzMKFXue57uRJnHr7bcd4ja9f3TW/uuJizNm+PeB2Zep8/JjzXQTf1u52xAzT588eMW4chk2fzhmLAYC+rAympibBCqrHzopWADELF2L88uUcs1qLVovS7Gxes6A3WFgWpdnZKN2+nSMO+73dmfTu5Ocj/8030XT9Om+698+fx9l333WxyDmnZzIYcD0nx6vnuH/+PP7vH/8RjZWVHOEJ5bfm6FGce//9Xr8vX9JcU+OyyQwjlyPcabempwUxw0CVnOxSWRkbGtB2/77gtb1qQcRSKRLffBPaggJH8yUCcPvYMdTk5vbKX+l2Xh5Kd+yAxWzmFDSpXI6olBTIx44FazBAX1bGaTpFALSFhSjetg1pu3Zxmk8Ly+LnXbtcLCZWAOFqNaKmTsWgsDAYbt1C4+XLjnGDJ7BPrCPO4fWDJBIok5MROXkyLCYT6i9ccMnvzUOHMHLePDy/bp2Xb8n3tGq1KN62jVOBWGHr9qhSUrxO7965cwhiGHQKzD2MTE3t84lm5/RFsE1COm8Z50yvB+nKxERMXLUKFz74wGEaNBkMKNu5s8cPzhoMKPv8c07LYS/Ec3bswOj0dDByOSwsi+abN3Fm40bUHD3KKZg3cnIQ99vfcgaVDSUluH3sGOdeVgCqxESk7doFVUoKxAxj2zM8NxcXPvzQ4/0kavPyUHfypIvw4l97DbO2bHE04w+rqvDj2rUcVxB3ZtS+oqOpCXUnTzoqDwvLgjUY8Ki6Gjf/+lfUFxW5VEopv/99j/7LS7t3cwbIfCw6eLDPrZ98Plxdxz1ur/PFzRNWr0bdjz86fK56O2C/d+4cdCUlLgUzYe1azosUMwyGxMdj2h/+AH1ZmaNlsNu7b3z/PUcg9woL0e7UtRJLJJi6eTNnzMTI5Y7W7/iqVd26mlhYFje+/95F0JGTJmHKxo2cQj8kPh5TNm5E48qVHNOjvrQUDWVlGJ2e7tlL6iEi2IwIfB7LdmNF1/cTrlZjelYWxg9Q871PBCKLikLSO+84rEx2ejpgr794kbf1GLdkCe/5qpQUjExNRdWBA5zj98+fh1GngywqChaWRX1REcfyZoVtpnbk3Lm86Q5NSIBEJut2fNCu10NfVuZyPGbBAt4BqColBTKVivOMFrMZDaWlHIHU5uXhxvffC94bsNXwUzZt8qr14RO9c4WkTEzEnO3be2XafdojgvhsHiQmPR3jly93eF52HbC/5IW51MKyeMAzY6/QaNya/8QMg+EzZrgIpFWrRdv9+zaBdHSg7d49l2uHJiQ4/Il6StO1azA2NHAKmAhAcGQkWrVaPG5r45xvNhp5LUIdjY2c7w2lpajoMmHnDplSiclemov5Cq6zQFq1WlzasweSkJAeWyVlSiWkT/zx3BEIPnju8JlAxAzDO2C/eegQxmVkIGraNI/ScVeQQ9VqiAXWAkSMHQuxROKoGUUATE1N6Hj4EIDNhm/U6VyuC1Orez1Z197YyNufLf7sM5R9/jnvNaamJpcCae7o4D1XaAzUkxo66Mk8DOfe7e1gW1o4rZpRr8f1nBzoy8owb+fOHnX/pmdlIT4zU3Aw3NsKqi/x6YpCZWIinlu3Dmc3bnQUVIvZjLKdOzH7k088LojONS5gm3EVut7db13T4vuTfOHG3cmyvF0WvklNO3yF3p2XqS+7KVYAw154AS99+aXLb6137+Lqt986XPzteWyqrkbRxx/3aKmx9Mnutv0dwdPc0eHiB+iJp7bPl9zG/fa3uHXkCGfAri8txaU9ewJq11M7fenqIVSw+X5zzsvg2FjELl2KoEGDBO/DyOXddmOc78Pn5qLQaDBi9myEREai+LPPHMdFsI0L75w48dQuNX7kNEloha3SlQ4eLHidzwUii4pCysaN0JWUOJrrTrPZ4SHqicl0UGioyzG2pQUWlnXfUrS2dpsWX1+Xr7XyliCGQVCX7h1g68aMe+UVDJs2zeOKQZWczPmuWbHC786fYobBpNdfR/X//q+La0bdqVMYv2JFwPmPdYeFZaH76SeX46FPPIWF6JOgDdFpaYh79VX83MX+7emqPHFwMORjxkBbWMg5brh1C5aODrd/zqObNzn3sMIm1tDhwwHYCizfWhO+cYm3hERGuli7Os1mDJ8xA8nr1/c6fX8jHz0ayqQkF9cMQ02Nz+9lYVncO3sWzTU1jrkKX08cNpSU4J5TeQKAqJSUbrt+fRIXy+4gFjlpktf9Z/vchjNN16+j2c0fZGFZaE+fdrlX1xpCqlAgjMdVovHSpV67eSgmTIBMpeLc3wqbX1YguZB4iphheAsO29YGixtDQk+xdHSg6OOPcWLtWvywciWOr1qFxsuXfZa+3cPB2bVIKpdjbEZGt9f3WeC4IfHxeG7dum6XS/IRnZoKmVLJ8Vtq1+tR9dVXvN2Ve2fP8tYQ0ampjj9azDAu3rkiAI2XL+PuqVO8+dAVF3s02xqiVGLY9OkuaWtPn0ZNbq7gtazB4NZvbCBgbm8H+6Sb6+sAGa1aLQo2bMAtJy8Lux/hiJkzu02jT+NixWdmovaHH1zcQLpDlZKCEbNmofrwYc7xin37EDpiBCb85jcIUSph6eiArrgYZzdvdvEd4ptYjFmwAJd27+bU6iaDAec/+MARbkYSEoK2+nrc+P57lH3+uUddQzHDIO7VV1GTm8sxk5oMBodjpGbFCpslLjgYlo4OtGq1uFdYiGvffgsA+Lv//m+fu5n0xijC15U1PXwItqXFK4tUY0UF6k6e5M2LmGHQ3tiINg8WS7kzE7fcvYv7589z89ncjIbSUtzIyUFDebmLOBSxsUhev96j5xDc/kBfXo47P/6Ih1ev4nZeHlq7PIi9EMakp2NIXBxUycm8M661eXk49rvf8a5ntwKYu2MHbz+97uRJHPvd7ziOhfbgDvYuDdvWBsOtW7yeuVM3bcKMP/6R80ezBgOOvfYaqg8fdjlfKpcjYuxYBDEMTA8fwlBby3GU7ErUtGkYs2gRx0vAwrIoeOcdF78je57lo0dDFhUFMcOgo6kJ7Xo9jDodLGYzxBIJ0r/5xmcD8rqTJ3H/wgU019Tgdl6eyzuUKZWIWbgQyuefx5hf/IK3S1u0dSsK33vPxfFS8+tfI+7VVzE6PR1GnQ41R47gUXU1dEVF0J4541KhBHnQg+j6noMkEmQcOeKYc7l//jzq8vOhLy/H7WPHXLqs9nBFXTEbjbxuM/ZnT/3iC4/ftaBATm/YgJLs7L+d7PR71wvHvvwylhw54pKGhWVR+O67vPG1hAQCAD/v2oXCzZt53d2F8hS7dCle3LOHt0bmEx5fugD/epeu52mWL8cvvvvOcbxVq8X/vfEGb4spNHNtz/Oigwd7bSGysCwOp6fjTn6+y3348jMjK4vXX67u5EkceeUV3nc/KjUVS584Z+YuXsxbGHuKs0BOrFnj8Cboafr2Z1XExmLmli1eVURejUG6C9firhmd/MYbjgG7p+FeACBhzRrM+uQThKvVbkPTdM1XkESC+MxMpH7xhdvuSnRaGmZ/+qlLml3TBWzimLV1K6JSUjzOd5hajRf37EF8ZiaCnoRL4suzc74VsbEY9dJLHrwRz3D+H7wNtQMAI2bPxvjly12uF8KTED/ehgByjoLTk49MqUTC6tX4RU6O1620YPsXxDCQyuXdriSzmEyC/jQKjQZJ77yDC1lZLn8eEx7u9joxw+D5deugSkpCxb590BYUOLo+jnMkEkgVCkQmJGDS669jbEZGt33LuMxMhI4YgfKdO3GvsBCmpiZHmlK5HJGTJ2PKpk2IWbgQD69cQWNFBe8z890nTK1G2p//jNELF+LawYM2x8su6TvnOXr+fIxftsynq+qkCgVkSmW351lMJreTkGKGwawtWxAeHY07J07Y3jvL2p47IgJihuHExfIV9nTtyJRKj8qgcxrSwYMhHzPmbyGQnixl8BbBLpZRp4Opubd6cE8AAAC5SURBVNmjhAaFhgrari0sC0NtrctxT+PA2q9vrqlB6927YFtaIJZKERIZ6XBk9NadwR6I4EFFBYx6PcRSqW1hUBeXCqF3II2IEBxY29Nvun4d7Y2NtsL1JEhB+KhRPcqzJ/A5SLqju2cAbM/RVl/v+G7/r52P+4quZcKbMtgVaUQEpApFr7ustEchQQhAG+gQhAAkEIIQgARCEAKQQAhCABIIQQhAAiEIAUggBCEACYQgBCCBEIQA/x/IpUdVtjxFtwAAAABJRU5ErkJggg==;" parent="1" vertex="1">
          <mxGeometry x="320" y="480" width="110" height="110" as="geometry" />
        </mxCell>
        <mxCell id="kGaND2a8ccCfyIjc9hiN-44" style="edgeStyle=orthogonalEdgeStyle;rounded=0;orthogonalLoop=1;jettySize=auto;html=1;exitX=0.5;exitY=1;exitDx=0;exitDy=0;entryX=0.427;entryY=-0.018;entryDx=0;entryDy=0;entryPerimeter=0;fillColor=#e51400;strokeColor=#B20000;" parent="1" source="kGaND2a8ccCfyIjc9hiN-14" target="kGaND2a8ccCfyIjc9hiN-43" edge="1">
          <mxGeometry relative="1" as="geometry">
            <Array as="points">
              <mxPoint x="517" y="340" />
              <mxPoint x="367" y="340" />
            </Array>
          </mxGeometry>
        </mxCell>
        <mxCell id="kGaND2a8ccCfyIjc9hiN-45" value="&lt;span style=&quot;color: rgb(0, 0, 0); font-family: Helvetica; font-size: 11px; font-style: normal; font-variant-ligatures: normal; font-variant-caps: normal; font-weight: 400; letter-spacing: normal; orphans: 2; text-align: center; text-indent: 0px; text-transform: none; widows: 2; word-spacing: 0px; -webkit-text-stroke-width: 0px; background-color: rgb(255, 255, 255); text-decoration-thickness: initial; text-decoration-style: initial; text-decoration-color: initial; float: none; display: inline !important;&quot;&gt;/TempControlHoujie&lt;/span&gt;" style="edgeLabel;html=1;align=center;verticalAlign=middle;resizable=0;points=[];" parent="kGaND2a8ccCfyIjc9hiN-44" vertex="1" connectable="0">
          <mxGeometry x="0.0798" y="2" relative="1" as="geometry">
            <mxPoint x="-111" y="113" as="offset" />
          </mxGeometry>
        </mxCell>
        <mxCell id="kGaND2a8ccCfyIjc9hiN-72" value="" style="endArrow=none;dashed=1;html=1;dashPattern=1 3;strokeWidth=2;rounded=0;" parent="1" edge="1">
          <mxGeometry width="50" height="50" relative="1" as="geometry">
            <mxPoint x="374.5" y="275" as="sourcePoint" />
            <mxPoint x="374.5" y="45" as="targetPoint" />
          </mxGeometry>
        </mxCell>
        <mxCell id="kGaND2a8ccCfyIjc9hiN-73" value="" style="endArrow=none;dashed=1;html=1;dashPattern=1 3;strokeWidth=2;rounded=0;" parent="1" edge="1">
          <mxGeometry width="50" height="50" relative="1" as="geometry">
            <mxPoint x="649.5" y="270" as="sourcePoint" />
            <mxPoint x="649.5" y="40" as="targetPoint" />
          </mxGeometry>
        </mxCell>
        <mxCell id="kGaND2a8ccCfyIjc9hiN-74" value="Publisher" style="text;strokeColor=none;fillColor=none;html=1;fontSize=24;fontStyle=1;verticalAlign=middle;align=center;" parent="1" vertex="1">
          <mxGeometry x="740" y="40" width="100" height="40" as="geometry" />
        </mxCell>
        <mxCell id="kGaND2a8ccCfyIjc9hiN-75" value="Publisher" style="text;strokeColor=none;fillColor=none;html=1;fontSize=24;fontStyle=1;verticalAlign=middle;align=center;" parent="1" vertex="1">
          <mxGeometry x="160" y="40" width="100" height="40" as="geometry" />
        </mxCell>
        <mxCell id="kGaND2a8ccCfyIjc9hiN-76" value="" style="endArrow=none;dashed=1;html=1;dashPattern=1 3;strokeWidth=2;rounded=0;" parent="1" edge="1">
          <mxGeometry width="50" height="50" relative="1" as="geometry">
            <mxPoint x="340" y="380" as="sourcePoint" />
            <mxPoint x="670" y="380" as="targetPoint" />
          </mxGeometry>
        </mxCell>
        <mxCell id="kGaND2a8ccCfyIjc9hiN-77" value="Subscribers" style="text;strokeColor=none;fillColor=none;html=1;fontSize=24;fontStyle=1;verticalAlign=middle;align=center;" parent="1" vertex="1">
          <mxGeometry x="459.48" y="390" width="100" height="40" as="geometry" />
        </mxCell>
        <mxCell id="kGaND2a8ccCfyIjc9hiN-78" value="" style="endArrow=none;dashed=1;html=1;dashPattern=1 3;strokeWidth=2;rounded=0;" parent="1" edge="1">
          <mxGeometry width="50" height="50" relative="1" as="geometry">
            <mxPoint x="320" y="610" as="sourcePoint" />
            <mxPoint x="700" y="610" as="targetPoint" />
          </mxGeometry>
        </mxCell>
        <mxCell id="kGaND2a8ccCfyIjc9hiN-79" value="Data &lt;br&gt;Retention" style="text;strokeColor=none;fillColor=none;html=1;fontSize=24;fontStyle=1;verticalAlign=middle;align=center;" parent="1" vertex="1">
          <mxGeometry x="574.48" y="630" width="100" height="40" as="geometry" />
        </mxCell>
        <mxCell id="23qIBK_YgI-ohNLvRXbz-3" value="" style="shape=image;verticalLabelPosition=bottom;labelBackgroundColor=default;verticalAlign=top;aspect=fixed;imageAspect=0;image=data:image/png,iVBORw0KGgoAAAANSUhEUgAAA24AAABSCAYAAAAsAYcsAAAgAElEQVR4nO2dPW/jSLfn/1r0l2hnxoiNhuHQEZUZ81yMZLjhSMkjoKOhMBtccXHhjgQYDThq72KoDfaB2FED6kSR0Q2LffcOnImRQ8MYmJx15vkY3ICkVHwv6l3W/wcY6BaLrNdz6pxTVWSl3+97IIQQQgghhBCysbwCgHenp+suByFkg3i9t4e/n5/XXQxCXjy7Lmu7Xv9tgf1EyHp5vbcHAPhvay4HIYQQQgghhJAC6LgRQgghhBBCyIZDx40QQgghhBBCNhw6boQQQgghhBCy4dBxI4QQQnaR2w94/e4zntZdDkJ2iNsPe3j94Tbz/4TkIThutzjf28Pr1L8PWMSQuv2wx0mCkK1i+XqBEBLyBPPdJsjZGstx+yGS7/kCM336/C7HQN6Utt8Gpm2V2j9hH26EvZfWr/Fyz9D3T59xKqbfgLqmjW/a3S8PwXE7xtXzM/5+fsbf4484whE+joP/P3/C8QIyO/70jL+//Yr9BTyLELIKlq8XCCFRjj6OAxl7xtfWAP9cUzR+Wo4xPh6toBxPn3HaGqA1CHXMADBWa3SuvM5bzNHREQYp/XP7Y4BWq7WWMmUhytTfgxYGrT2cfn7KSFPQ97cf8Lr2HaeTufAZ9ul3/PvnzXOPaHe/PEpulYxHJcSIxBPMd+9gPokR+ncwhXGcWA6ORSzCCMjT53dCHtFnEEI2h+QWD19H+BNisU7I1ymEkONfWsCffwnGcYHMZMyryWvvYP4lW4p9/OP0aFKOfLmflyMoEyvzGFcRo7PIBtnD+W2avvGvqRd3wKCF13syZV1lnbeTt7qO1t13/JfYBE+f8fughfov8dSz9l1AbCX29Z7YHyXnkeNP+HvQwt3FvzLSRfs+yi3OWwO0Bt+gCd7Q/q/f8P3X8Id557WyMp49vrPG7cz9QNZOCcftCea7Gi7eDqYRho9/4p+RTr/DRc2AMg6vAxe1rAF7i/PaBTCJcASRtafP+PeLt/gaRkaeo8JBCNkcjn9pAYMfUxl/+gPf745w+nMotPk64fZDik7htg5CAp5gGgPg7U8T5yVfZm5x3gH+9+SauCLyBLMjzrk6nIuBdDn+6/sdjk5/xj5k5H5G9n/G6dEdLmrpxqKMvhi0pvrma+sOF/+6BbAP7ZvfHmj590+N7DXXeas5Rr11h+9/CGGFP77jrvVLbDeGjP2Y1XeA7yz9OdntMenHT8fSz04W/Re0MICVmija99FLf+FPtFDP3G4yY3kECmU8YTv/gX9Ije95+4FsAvKO29Mf+H7XwtdP09G6/6uOFv6EK2hNMQqRdn3C7Q8M0ML/mAwuMbKWJUyEkI0iNvn5k7YeCbZk6oSnz/h9cISPv8V0SjyCS8iOcXdRC6LdNXw/HQcGKiRkJrpCtf/zKY7uHN/gC+bwyJw7yN/OJpbjQnRSJOR+NnwH62vrDhe1WLRfUl+I+ia5WlnM6uu83Rz/Iq5c3eL/XCDSRwBmsh8jfff0F/7EW1TDeeSnt8I1uWfLkNn3kbo4uMt7yLzlKRrnubZz0bPn7AeyEZRw3NIG6z6Uozs4uT2ac/1ISQ62/V/xffwRf7b2JLczEELWxzH++8cjDH7cIoxStn4pOvkm6oTQQAv/WpBdAyDkpTI5a5O6nStfZiJHDWoX03m7yODMK8fzM/4evBVWwmaRe3mOP4kr9OLq2/L1xbrqvLWIDu3tDwyOTvGPuGE3s/0YJv0JbwXn4vaHsAo977MFsvu+BAspT8E4T7OdV1Y2sm5eSafcV3AEJ/bjE5w7cT96GjnXg0hgqvP2/Cv8N9rVcP7TM66oHwnZSPZ/PsXRxQ/c/qb4Ef1CWRV1Qgtf+ZITQtI5/g0fj2r4/fNvOJ5E2HNk5vYD1Iu3+Pr8zb/+9BmntWDeTp3Dy5TFN9CdYNIuL/fl2f+1h4/fa5M8V64v1lDn7cN3aNUft6hjgKPTcYpNN6v9GCb9C3/iDoPaHi4A+OPgeL5nBytXX7P6MNb30d9bsG4/4Tjt3nnrCiB3nD8h23YuYiFlI+tGfsVt/2ecxt6y8/TZSERXBq1phCLt+oRAKH6frKjd4jxxtmUfypF0CQkh6yDUDbWLlLMNOTohuO93rqoTksE+NF1YdSspM7f/Elbc9n/CW3HODd7gKM3tDwzEoEuB3M/C0+d30V02t//CRWhULkpflNn2tYI6vwT2fz7F0aCFfw7ELXyRBFL2YyZPDu5a03NZkTcaz/LsYOwfffwtuw/jfT8hWHltRVfjJmN33roWjfMi2zlvfM9bNrIRyK+4YR/atwGcvRZeh7r+6CPs2N7a1kCHU9vDa/9/+Pqctff2GFfjjzit1fD6AgCO8HH8Dfu3H/BanExaA/xN7UjIBuO/geviLn3rULZO2If2bQy8C3VAQIpeIWRniUT4C2Tm+BO+tvbwz71B8PNHtCYR9vic28LX8Uf83snO+u4imk9r8Cyc6cqX+1nY/7WH00jdfLvAz3N+feGvmF1A3bvA0cdx6gscVl3nF8H+zzg9usDd2yxnVs5+zOT4E77+2MPrPeG3yf1yz472q/9Zm/j5xPy+F2rz6zfYeAd1sgIY5uknnquuheM8w3YGgMLxPWc/kI2g0u/3vXenpwt4lP+2GkfntkZCtp3Xe3v4+/lZ/obbD3jdQmx7B3UCIUWUlrVNIlXuy7F19V9AnbeRdfbT0+d3UL+fRhyM2w97+F1Jd74JeYm83vMjFyW/40YIIUlufwwAbh0iZKfYRbnfxTqvmyfnLvJJDOAJ7p9rLBAha6TEVklCCEnjFtYAaA1oyhCyO+yi3O9indfP8acxPr6rRbZKZm11JeSls8CtkoSQl8LWbV8iZEvZdVnb9fpvC+wnQtZLuFXylfgfQggJoV4gZDXsuqztev23BfYTIeuHZ9wIIYQQQgghZMN5BQCe5627HISQDaJSqVAvELICdl3Wdr3+2wL7iZD1U6lUuOJGCCGEEEIIIZsOHTdCCCGEEEII2XDouBFCCCGEEELIhpPruFntCipta1VlIYQQQgghhBCSQo7jZuHaBLSz+upK88Kg40sIIWQjsNqo1HpwdzV/Qgh5AWQ7btY1TNXAed1Cu1JBJfWvjbW5JW4PNbEsC5wQ3F5tCQ6Xi16tglovWkq3V1to2a12tC3i/yekPP7Yjct/GRGZR6YYACG7hNX25St1rliZHKTJ/Grm+1R5j8/3kfYpY6PMr8ukyv/i59z0dpz0idXObN9wfG+EHUnIFpLpuFnXJtTmCaqoo+958DwPnmNAhQrDCf7v9bGW9TirjYoyRHNSDg9Oc4j3vZetKmWo9z144w6qGf8nZFZUw5nImzfSYDaSxiUhZH5UVYWtX63doBVlfqSZaKwjgGK1UVF0HI6m873nGICuBPqnvI2yTF22S3OuJvaJ52HcqfpOdsMUro2Ay6gjK7a/Y9yjQeeNEGkyHDcL16aK5oms6olHX0QhdNGr1dBzxahYG1bknhqmOjMtvXjdQrthQhuN0RGKV+2MfaUhVZ4K2lba8/1rim4DZkOIIFloV2ro9dqx5+XlMysyZReSx7afxKOyyejlMspMdo56H95IixqXsai4P+yyZCorfRF58ptXjum9i9FTRc8jZA6aXRhqkaNUMP4iclBD77Hk/THqZxpw/ygY4PPmL4OL3qUJ1XDQFz2wagfjuP6ZlTRdllO3rDk11GuJ6zPpo2Auz9JxG4+KAyX8dx39HEe22ulCg4lrKk9CpEh33KxrmGoTsn6b1VagH46iEZTIVgEbunKNM8+D5zn+hFRR8NAN0wP6+3j6Sxw4wnUlUGruI+6hIfvonYteLaU8MaVoNqbPH2k29CsLQBWdsQfHUAFtNI0ghWXSgdEkiieXTzmW8cwoxX1FiCT1M2HCtdB+D3yZjCsV5mUPbqZMZaWXI11+g3IoOjCJ6IbRXhnZKqenKEtkeSjofDGgmpcZBnvReHbRey/KQRcPuhl5Qrnx6ztQOHwzMcDz7y/OXwr3BkM7I4hcP4OGezwuQuAiuiy/bvUzDTCvhYBVThkz9VFB+7k9vNcPA3vDg+dFA9UbTfUETdWGrkg6m+4j7iOOHiEkjxTHLYhwNU/klvrdHi5NFcb51JOqdrrQ7CFuBKHVRuGWhSpOmr4RF0bQqm8OAfsBDsT0U0XlR2QCBe08wM4tzw2GtoZRP1aemIIXn5+MJKYzrYN8PnFsXYns71Z0oTYzPlMayb4ipDzRqGr1pAk1JtPzpY+SKb/WNUxo6E6snCAfab0gqacoS2TZVDvoanYsqBlQNJ6D6xE5GGnC/XLjdzpfKRg2HXhhfkX3F+VfikO8yTRGbDzIKg1ZiuoWc/LcmyHsrEB3pj6Saf/NX4UyG2krhn6wbqTZ0JXi1ULrSs9uP0JIgqTjlhs9yiIU0PCvgRlia4V5SCnoVMdOwYG6YAU/Yz6RvfXBSsO8zyzHKvqK7CKRrT2Knh9gmSG9NOoBEsHbpcgWZYksl3p/BM3Wk+e3i8ZzUYATgMz4ncxXqdsSc+6Xyl+WvMDlslZq8tqmDn/RzQLg4mZoQ+vmnGlL00dFeVQ7GDsG7hvxF7FsFtEzbtHzhPW+uGMq6ryJAezGvQFnR84EErIIEo6bezOErXVLLstrwpL+spb2AwUdi3YlUA6gJn508GAvWMEvI5+VlH0VfUV2giCafFYHYLWhiFt7HCNlLIv3lkxfhrSVu6XIFmWJLBt/pcrWr3Aj/lw0nlOvxykxfuvnMFQTlxEHIud+qfwlqL7BYVbQ1rqGmbsaVwJRlwEoapv6uQHVvIYVrCzmfjUpcydBQftXOxgH2ysPdWWhb75cJdXOFxixAFkkgE2njZBSxBy3IHpU5ttt1RM0Ewp9fszGNELj9i6FM3d1nBtq5LqfpuZHpYLyiIe6o/dLUrR1clH5lHpmFW8Ow0gfJm9vKvv8RfcV2UGCsaca56lvbbOuUlbQcmQqNf0sBIGdS/FV4bUe3EXLK2WJrIrAadLFbfVF47n6BoeiHMTnitLjt4pOV1h1K7q/KH9p0uf7Iv1TivizZNomTPN+CFs7yy5DgT6Sa38FBwuLai2fiS0WYl1BX3TgnJAdJuq4yUSPElTRGTtoDqNnt+b9jok26uJBCc+BHWIknofpjIPld+Gs2LCJL51qUJ4RtOANduG1Mkvx/nkbHUruFoX585nlmfW+cF15QLfUuYHl9BXZDSLnM4PPcUxe3lPv+68LD65fHhgQR2ZCpgrSz04d/eBV4X5ZL3HwpYPqwuWVskRWRdV/UUn8t9zxHJMD5QHdyKr2DOM3stul6P6i/EvUvjOGNzqMbiuM65+S5Ooyqbbxz8DadlGgO08f5eQR+Q6a/xKT/twe6uKJnnHzdXu18yVar8Y9DIc7EQhZFJV+v+9pmm8yub0alIfu9ADyWvDflvXQ9TZSUW06m9GHZNupVCrwPG/dxSDkxbPrsrbr9d8W2E+ErJ9KpSKuuM2wTZJsHM6DDZV7EgghhBBCCHlRvJr+03+FK9lS3B5qig4bGkYe9yQQQgghhBDyknhVnGTV0IGciWoHY6+z7lIQQgghhBBClsArwN8zSQghItQLhKyGXZe1Xa//tsB+ImT9vALAA6eEkAg8iE7Iath1Wdv1+m8L7CdC1k/s5SSEEEIIIYQQQjYROm6EEEIIIYQQsuHQcSOEEEIIIYSQDSfXcbPaFVTa1qrKQgghhBCyNGjXEEK2mRzHzcK1CX6QmxCyEOIGEw0owO3VUOu56y7GhmGhXamBzUIWz6LsGhe9WgWrVV/ryJMQsmlkO27WNUzVwLmo39weapUKKuFfrYdNn1vdXi1pHFrtaR0qUUWYmr7s8wl5Qbi9WlLWA10QH/piWqs9q47wDZS4bE4I5XcL9E8+Fq50oHlShe+sVCJ6afrXxjwaZtN1VLJ8dZwbwPBmu3t3Vqy23+9xhz7eTnH5Cu9Lm9tml8XVkxrQidsekfYpITtxuybHFtgENrffZtTRKf04vT+vH/P+ivTjtKzZfZ2eptZzfblLzSPqSEuN20l7ZOcXab9ZxmWRnZ4rS0JdZHVQYbqCumaWec45MbUN5Z8Z1i3a9kX3ZwRXrHa0H+bUO5mOm3VtQm2eoCpmpAzRdDx4nv/nNId4v21hUbeHWsOENgrrMQIuN1ExErIZVE+aUO0hIna08wAbgHkd1TjOgz3RG/W+B2/cmeqQkqiqCjNFNq1rE5qmzfjUDcK6hqk2cVIFgDr6gV71HAMqVBgTXdvHru17qL45hD282Vm9rKoqbP0q1zhJky/VcCbzs+d56Nez024NVhsVRcfhaFovzzEAXQmMP3nZidg1W2ALbHq/ldLRKTak5xi4b4SGa14/Ru+ZRT9GZGOkwWwkHQ5tFM1r3Kmi2ulCg4nrhDF+Bd3WkLl4K2Ezp+U317gsyrNQloT2ktBBZdKl1jW3zMrsc2JmG8rqCgvXpgpNU2M2zgLm6QXonQzHzS+0Hwn2/99umNBGY3QEDVLtjKeNn/CqRe819EJFb1XcClN0vej5SHjsbctPr+g2YDZiHr6KAyW8sY7+uIMqctInnj0tTzJ9iscd87b9CE5WPQnZMKonaKp2ZAXEujahahpU81qQw6jemHcr5GG3Cy3uMLo9XJoazs7iqfP1Q5bMZcpiqsyH1YxGyyqVSk50MTsyaF2bwOGbEkZZ2TqW1WlhHjX0XFEXTyOJ5XVznm7PKV/9LNn3u0SzC0M10ciRnzLytb3bkl30Lk2ohjNxQgEA1Q7GI03KYJwSt2uAdFsgyLdgHg+fmWWzlNMtwfbgXjsiQ+n9NqudlJ7HPPaIvI5OtyFR7eCLke78LZV6H570+KnjTEsGKS1/z22GsS5jM+eRNS7zKMqzpCxJ6KBS6WYq8zzM0oZhsfyg6vl5M2bjLIo5yoYsxy0SCQbgPuIeOZEFuOjVFOiHo6nHbNyjETMszMYlDgLvdKTZ0K+izZF33WqnPH+iRC20FR2YRFRGwOUNTsYeHEMFtNHUww+MUF2JK6gqOmnpYaH9HvgyyTdUMlnpC3B7eK8fYjSJPMQUGSEbRxUnTRX2gxP8PzCAzs9wKEYirWuYOMSbhY3nOs60qMPo3gxhp0yWufohS+YyZTFL5oNrjftJlG0i/8FMmK+nRFw83gPqVHsXUr6OZXVaiA1ducaZ58HzHH9Srih46IbpAf29uEWvuM7puj1Phyo4UG1MhtzOoaDzxYBqXu52YM+9wdCOO1sB9TNouMejbPvE7ZpMW0AecVz7CxeBzZOnWxK2SigrNnQdwT3Z0fvMPCEji7E85rZHJHW0+4j7iLE6JXVHxyqon6WvpKUm1YBEkDLnrGShzZzDrOOyKM/SsiSrg+bQVfO0Ux5zyvZkZb56gqZq4nKRSngBeifFcQu8cnGbZLAtKhP3BkNbw0hw4/3l5ehAEL3q+pkG3D9GJvfM624Pl6YK4zz2/FDYrWuY0NCdaJw8D9Y3FkaaDV2RiTBFn+UrmQfMZ0/IKQtCNoXqm8PpxOU+4l5t4qTqRyLvAyF3H+9zIpCzUT8TI4H+mTDjPJZDkX4AkC1zab/nyLz7iHvBOa2+OZTXUxEcPNjAoayXO1cdS9QvQBuFhqPvtEMbTaK01TeHwKQ95OpcpPuTVOE37Q57LdUOupodcZKLsHWl3DmQrSAvGCTr3KfYNaVtgSTiuE7aPGnb6/JtlanczZCntCzG85jPHpHS0c4D7IUG9ZaD2chYrYw7eWnvgBApsplz85txXErlWVKWZHWQRLrUukq2U3nmkO1AjnwHNwhaL3Tb/vx6J+m45XnlWaQ2/qIjpmElw78GTPGyegD52HWwd3wSscpvuMhWAkWfb6BVOxgH+7rTDnUSspEIE5d7M4QdbPGrn2mBUnNxM7QX/xZaccKMR8wj5OiHLJnLkcVMma++waFgnCW3OxboqbmYoY4ZLFSnLbXOu029P4Jm69JnyaNn3F7K2ci8VbX0VZwEOXZNGVugmMDmyZPHkraKdJ7Bv0vJ4iLsERkdrRxALbM6uiai57BE+anj3Jied0q8A2Lh+S16XIaUlyVZHVSULq+uy2KWNnRvhrCFMbysFeF5+jfhuPnL3N3ocnnRkrJyADXxo4MHW1KpSqEJy/kpy/ozroJVO19g5DmYVhuKuJXAMVLqWjpTjINtEoe6snFvsiIkyXR1zXkQHLTwLJLlr7ov/ush0wkzf7Is0A9ZMpf2e57Mu4+4F4yjhhndaVBYjrmYsY5xFq7TllnnXaeOfnD+5GbdRVkH1Tc4zFpVK7E1O9WuiWdVZAtIIdg8WfI4946dnDxnkcW57REJHZ3Tj3FDeWUEq5+yc1b1pBlsB0w7KxmjxDbMwnxlx2VRnjPLkqwOmkFXLbCd8pCXbT8ADVuHEgls2qXechzfKeI+3i+gbFNijltW1DwQzEby8G2t5wZ7NqOHE93eZU50vCRF+0yDzp9et9AW93UL23IS302yrqDHHcycbTzWVUp0OpLe3+IzOcgavEEmHQUHc3uBhKwGf3XtvX/wfKIi/JX14WX62bNF4E+YDTRMcYtRJEGJfehZMpctixGZdx5gayOkRg5nKIf0VsB561hWp8myqDMAifL5ZwClt5K+ZOrnMFQTur6cTUWbTbrtEc6rqnEuoXPS7Zp8W0BuHhfLlW3zCPJYZKtIkJnn3LI4uz1SqKOz+tFqQ9FtaN0Vvzmz1PgJCF/S9V7Gti2wmXOLJmGjzpTnHLIkq4NK66rZ2ymPmdswSBd/m6ljyL05c7K1MpLWwpUwxmfvX4F+v+9NcAxPheaNvHQcQ/UATP9Uw3MmV0eelnnN8QwVniY+eKQJaYquT9Nk5u8Ynjq5pnqGk/xdNZyU5whpU9N73kibplcNw9PENkpJH20LzRuJdRlp0TpoWa1NyPoAkPJrMK4jcjnVC/GhPNKi47vo/8ITY/ogkFkxbRn9kCVzObKYJ/PitSxdl309u32EBvXUuF6atY6T58nqtKQudgw12faReSKvzhK6PVOHprXByyMuayNNbIeAsI0K5ClxX0baTSKt/omyxsd31thIk51Mu6bAFsibxz3HM1TVM0ai3SHkISmP0zz9vPJ1aEGeqXUSZTEljxL2SLSfZtHRKTZkVj0ydWDBtVRS2iRxf1qapDxlzXV+dZPtl20z5+VXNC4Laptrp3tSslRGBxWnK27bwjLP3ecp96Y8M1tPpshOTpni9Ym20Xz9C8Cr9Pt9L/zehturQXnoTt6QRgjZTSqVCnwdQUTcXg3KsAlHeKGA1a7g8sAp//piq43K5UHkWSTAaqPSAEYv5pxWNrsua8uuP+2axbDUfrLaqATftmI3EZJNpVIRt0ou6eUChBDyQnD8V0EKjpa/pW8mdv1bZTnkfyOJEFlo12wF9T48j04bITIIjpv/ikoKDiGEpFPvOzDuG8Jb2xQMmzOstvlPw7mBUoeedwP/8H/ileKElIZ2zctH/CB58u/lvLl7V+opw263RWSrJCGEANy+Rciq2HVZ2/X6bwvsJ0LWT6VSQWX/P/7Ne/pf/3fdZSGEEEIIIYQQksErAIyiEEIiMLpKyGrYdVnb9fpvC+wnQtZP7OUkhBBCCCGEEEI2ETpuhBBCCCGEELLh0HEjhBBCCCGEkA0n13Gz2hVU2taqykIIIYQQQgghJIUcx82C/w1UfgCFEELScdGrBd+PqfXwsr8eQ8gWY7XXK6Przp8Q8iLIdtysa5iqAf8bqL5xEv+ondurLVwRub1aZJXPassaRHkf5GtjbeuGbg81sSyTukwNvtRFTaudmV7844IoWQWLWn2Py/eiSXu+vA6ZAesKuq1h5Hnwxh3M8hnu+cvQ3hqdMF//L18HLnWsECmsdvpHdJetO6KkjbU12hGEEBKQ6bhZ1ybU5sl6DBGBel/WIKqj73nwPA+eY0CFCsMJ/u/1sZZ1Q6uNijJEc1IOD05ziPfChKSqKszLpKFgXZtI+zC6ajiTZ3kjDWbj5X8lnpB5kNchM6IeQFnWs4twe6g1TGijUMeMgBR98pJYpg5c+lghUqiqClu/WrujJI61kWaisclREULITpDhuFm4NlU0T8pOX/EolRih8q9F9J7E1oFkpD8vj3nLV0PPFVfu2rAi99QwtQ/S0ovXLbQbJrTRGB2hGaudMcbCD4fdLjR7iBuxEdweLk0NZ2cF1an34Y20jZjgyC4RynLW2A+i45Fr/j2KbgNmQ4ioW2hXauj12gmZy9UVsZXstpX1/LI6pLhukTo2TMDWoVTCPNLqI5NnGd0TR8XBxHOsox9xPPLyTZa1ndFWU8eo3PPi7ZrWP3Pp9FQdmP28rLGQOVYS40ymXcncNLsw1CJHqaAPIn1XQ++x5P0x6mcacP8o2Cvz5k8IIeVJd9ysa5hqE+X8Nhe9mgL9cDRdXTLu0VjwhGa1U/KQ3NpSfK8NXbnGmefB8xx/4qgoeOiG6QH9fTz9JQ4c4boS1Nd9xD00FB8RrONMszEUPDf3ZghbO5NbJayfQYOJa1oNZMWYjenYH2k29KtgELo9vNcP/e2DngfPG6NTraIz9uAYKqD5MjgNYNjQdQTpZVbHLbQVHZhEw0fA5Q1OMp8vIqenMusmUO2M4Y00QDXgeB68fljyeH1k8iyre8JCnKCp2tCVdMdOSucJZe2faYB5PS2Xe4OhPQ3ilX3etC+z+n8B80ZMB+aVsV5Qv1jrpYwz/znzzENEBgWdLwZU8zIjYFE0blz03ot918WDbkaeUK4PXfQuTeDwzSQokn9/cf6EEDILKY6br6DStknauhLZ863otnDbDYa2hlFfmKo7XWi4x+OiZjO3h0tThXEeyyO+YjXHvdooNDaqOGn6RkZYpeqbQ8B+gAMx/XRFLVJf5wFC6+RSPxMjxhaudETKScgmIo79ZDS6XDBhKncSWNcwoaE7ccziq0w5SOqp/LoVE6mPdJ7ldE9wBZ1x4FwqsZW50joPCSfIvZ+dkPQAAAOQSURBVBnCDoN4szyviEXPG0VlzKtfnKxxNs88ROSpdtDV7PSARdG4Ca5H+m4kHD2Q7MOpzaNg2HSmwZmi+4vyJ4SQGUk6bjkRyMjZAi+InoakOioKDlQbD0lrYw5CAyX8a0A+jjXPvfJ5lK6vaEzMtNpJyAZR7WDsGLhvpL9kYCHMeq5sZXpqtXnW++Kqv7j6Vlbn1eEvSlkAXNwMbWhd0SlesA5dStvklbGofjEyx9kq5hJS74+g2XrkXDiA4nEjFTgt7sOJzZN6JCHn/hKBW0IIKUPCcfO36XWRussoD+UAauJHBw+2eP5iEWjCFixxK9ay75UlqG+pLYx1nBsqzGur/Ethgqgwv9pANopqB+Nge9mhriz+TYepq08SrExPrSfPaucLjIjTU17n1c8NqOY1rGDVIKpbFqxDF9E2CR2YX8b8+sXIHGermEtIuFJl61e4EX8uGjep1+OU6MP6OQzVxGXEgcy5Xyp/QggpT8xxCyKQs3gB1RM0Y4eJ3d6lsHpUxZvDMNKJydvQ4jgPOXGqII/LWSL489ybg9mYRrej9Q2csUbypQ1pKxDVkyZUs4GGKW6vKCBoQ9U4X89bMwkpRMFB3IIp3HZYoCuCoMhUli20xbMpec8v1FNLYIl5JvSJdQU9NF5n1Xnhfe9jZ20XpUPF/pm3beI6UKaMWfWLkzXOljSXkAwCp0kXj2YUjZvqGxyKfRfXIaX7sIpOV1h1K7q/KH9CCJmRqOMmE4HMpIrOeAQteGNYpVKBMmzCEc6e1PvCdeUB3cme7+nb1BpmdN96Mg8HzWH0rJ3cd3fmuTcbbdTFgxKe+TvESKhvtTMOti5VIm3yJc0xq56gqQIoeClJ5Jxh8KmB9JcwELImIt8V8w/wT85qnTShBm9hzNtCma0rAKCOvi9YQR6XOPjiy13x84v11OJZXp7VzpeoTmvcw3DCVYNZdZ5/xs6240G8+XVosn/Kt02+DpQpY1b94mSNs+XMJSSLqv+ikvhvueMm1nfKA7qO+IwZ+jCyi6bo/qL8CSFkNir7//Fv3v/7n/8JwI/eKg9d4e1oJBv/rVYPXQ9sLvLSqFQq8Dxv3cUg5MWz67K26/XfFthPhKyfSqUirrjNsU2SEEIIIYQQQsjSeDX9p/9aaUIIIYQQQgghm8Wr4iQkHTq6hBBCCCGEkNXwCvD3TBJCiAj1AiGrYddlbdfrvy2wnwhZP/8fnjUWQIOhfrwAAAAASUVORK5CYII=;" vertex="1" parent="1">
          <mxGeometry x="100" y="810" width="878" height="82" as="geometry" />
        </mxCell>
      </root>
    </mxGraphModel>
  </diagram>
</mxfile>
